{"glyphs":{"0":{"ha":1036,"x_min":69,"x_max":966,"o":"m 966 317 q 934 309 950 317 q 883 252 891 273 q 858 129 875 165 q 737 18 780 35 l 395 0 q 226 64 256 35 q 161 203 161 165 q 132 288 145 274 q 69 317 85 317 q 102 335 86 328 q 151 386 143 368 l 158 725 q 223 894 192 863 q 395 961 342 961 q 738 943 694 961 q 861 819 844 863 l 878 425 q 906 356 893 369 q 966 328 950 328 m 637 136 l 637 825 q 554 907 592 907 q 420 885 442 907 l 399 136 q 482 54 441 54 q 616 77 595 54 z "},"1":{"ha":604,"x_min":0,"x_max":549,"o":"m 549 0 l 131 0 q 164 17 148 9 q 212 67 205 50 l 220 633 l 0 646 q 224 770 171 729 q 412 961 374 908 l 460 107 q 487 36 475 49 q 549 9 532 9 z "},"2":{"ha":907,"x_min":90,"x_max":872,"o":"m 781 -87 q 773 -55 781 -71 q 723 -7 741 -14 l 90 0 q 110 247 90 199 q 236 412 195 376 q 405 550 363 516 q 530 698 511 657 l 550 802 q 518 881 533 867 q 443 907 465 907 q 330 886 371 907 q 192 759 218 801 l 144 675 l 154 1048 q 181 987 168 1000 q 252 961 231 961 q 643 943 600 961 q 764 832 747 868 q 789 710 781 731 q 839 652 823 660 l 872 633 q 528 563 588 594 q 368 398 390 446 q 329 191 329 243 l 441 54 q 592 110 558 84 q 711 241 687 203 q 779 401 770 362 l 790 -87 z "},"3":{"ha":904,"x_min":83,"x_max":869,"o":"m 869 317 q 838 310 854 317 q 786 253 795 274 q 761 130 778 166 q 640 18 683 36 l 191 0 q 120 -26 134 -14 q 93 -87 93 -71 l 83 401 q 121 321 104 362 q 217 169 187 203 q 354 69 315 84 l 440 54 q 515 79 500 66 q 547 160 547 132 q 534 255 547 212 q 452 411 479 377 l 400 484 q 545 789 545 713 q 536 848 545 828 q 479 900 498 894 l 407 907 q 248 833 283 866 q 150 675 161 718 l 139 1048 q 156 1016 149 1031 q 207 968 189 975 l 542 961 q 711 897 681 926 q 775 758 775 795 q 804 675 791 690 q 867 644 850 644 q 730 615 791 631 q 533 531 570 555 q 544 430 501 458 q 747 343 688 358 l 869 317 z "},"4":{"ha":836,"x_min":0,"x_max":781,"o":"m 760 0 l 342 0 q 375 17 359 9 q 423 67 416 50 l 431 318 l 0 330 q 261 625 206 547 q 440 961 404 870 l 671 371 l 781 318 l 671 107 q 698 37 686 50 q 760 9 743 9 m 431 371 l 431 793 q 365 672 382 700 q 307 550 319 585 q 275 371 278 428 z "},"5":{"ha":961,"x_min":69,"x_max":843,"o":"m 843 236 q 826 141 843 184 q 703 18 747 35 l 248 0 q 177 -26 191 -14 q 150 -87 150 -71 l 140 401 q 216 247 176 313 q 394 75 349 96 l 519 54 q 603 136 603 98 q 581 612 603 590 l 158 633 q 150 896 158 878 q 101 945 117 939 l 69 961 q 699 968 682 961 q 750 1016 743 1000 l 766 1048 l 755 675 q 658 833 693 801 q 498 907 541 907 l 395 688 q 704 670 660 688 q 826 546 809 589 l 843 236 z "},"6":{"ha":935,"x_min":132,"x_max":935,"o":"m 612 160 l 612 167 q 567 334 587 298 q 468 463 494 433 q 372 585 391 553 q 394 76 372 98 l 505 54 q 582 80 568 67 q 612 160 612 133 m 935 317 q 904 310 920 317 q 852 254 861 275 q 826 130 843 166 q 707 18 749 36 l 368 0 q 199 65 230 35 q 132 236 132 183 q 149 819 132 776 q 272 943 228 926 l 685 961 q 755 987 742 975 q 782 1048 782 1031 l 791 675 q 744 759 770 718 q 607 886 648 866 l 481 907 q 403 881 418 894 q 372 800 372 827 q 394 678 372 733 q 544 478 491 522 q 791 349 721 368 l 935 317 z "},"7":{"ha":715,"x_min":56,"x_max":701,"o":"m 551 0 l 134 0 q 166 17 151 9 q 215 67 208 50 l 222 179 q 332 608 282 517 q 586 907 514 848 q 241 886 282 907 q 103 759 129 801 l 56 675 l 65 1048 q 93 987 79 1000 q 163 961 142 961 l 701 949 q 525 708 555 783 q 463 319 463 442 q 470 67 463 85 q 519 16 503 23 l 551 0 z "},"8":{"ha":929,"x_min":111,"x_max":818,"o":"m 818 236 q 801 143 818 186 q 680 18 724 37 l 347 0 q 175 68 205 37 q 111 236 111 186 q 205 348 162 334 q 358 424 324 400 q 350 537 385 509 q 203 619 243 607 l 118 725 q 184 895 153 864 q 353 961 302 961 q 670 944 627 961 q 793 821 776 865 l 811 633 q 657 590 692 610 q 507 475 549 513 q 818 326 737 338 m 579 612 l 579 825 q 496 907 536 907 q 372 885 393 907 l 350 612 q 464 514 437 540 q 579 612 552 593 m 585 136 l 585 350 q 464 439 493 414 q 407 392 423 404 q 345 350 359 359 q 366 77 345 100 l 501 54 q 585 136 585 98 z "},"9":{"ha":970,"x_min":35,"x_max":838,"o":"m 597 376 l 597 825 q 514 907 554 907 q 421 900 441 907 q 365 848 373 868 l 357 794 q 402 627 382 663 q 502 498 475 528 q 597 376 578 409 m 838 236 q 821 142 838 185 q 698 18 742 35 l 222 0 q 152 -26 165 -14 q 125 -87 125 -71 l 115 401 q 192 247 151 313 q 370 75 324 96 l 489 54 q 566 80 551 67 q 597 161 597 134 q 576 283 597 228 q 426 484 479 440 q 178 612 248 593 l 35 644 q 94 672 81 658 q 126 758 126 728 q 190 896 159 867 q 358 961 306 961 q 696 944 653 961 q 820 821 802 865 l 838 236 z "}," ":{"ha":486,"x_min":0,"x_max":0,"o":""}," ":{"ha":486,"x_min":0,"x_max":0,"o":""},"−":{"ha":589,"x_min":35,"x_max":554,"o":"m 554 453 l 35 453 l 554 510 z "},"¦":{"ha":129,"x_min":35,"x_max":94,"o":"m 94 568 l 35 568 l 94 1050 m 94 -87 l 35 -87 l 94 393 z "},"!":{"ha":555,"x_min":69,"x_max":486,"o":"m 406 131 q 326 82 357 117 l 273 0 q 150 131 195 118 q 228 185 195 151 l 282 269 q 406 139 357 153 m 397 318 l 158 318 q 150 896 158 878 q 101 945 117 939 l 69 961 l 486 951 q 425 925 437 938 q 397 854 397 877 z "},"\"":{"ha":578,"x_min":35,"x_max":543,"o":"m 273 825 q 235 791 253 812 q 179 678 189 712 l 144 606 q 106 740 120 711 q 35 825 56 812 q 108 881 77 847 l 158 961 q 273 833 227 849 m 543 825 q 505 791 522 812 q 449 678 458 712 l 414 606 q 375 740 389 711 q 304 825 326 812 q 377 881 347 847 l 428 961 q 543 833 497 849 z "},"#":{"ha":669,"x_min":36,"x_max":633,"o":"m 633 807 l 614 750 l 436 538 l 515 484 l 355 318 l 353 484 l 127 318 l 123 484 l 56 538 l 221 750 l 154 807 l 297 961 l 306 807 l 526 961 l 534 807 m 449 750 l 285 750 l 372 538 z "},"$":{"ha":665,"x_min":56,"x_max":659,"o":"m 659 541 q 639 535 649 541 q 606 492 611 508 q 587 405 600 430 q 498 330 529 341 l 385 318 l 325 252 l 184 318 q 131 298 140 307 q 113 262 113 270 l 103 583 q 152 496 128 534 q 263 392 232 407 l 325 625 q 199 699 233 686 q 56 728 92 728 q 76 745 66 739 q 109 787 103 772 q 127 877 114 852 q 216 950 185 939 l 325 961 l 385 1026 l 484 961 q 537 981 528 972 q 557 1015 557 1008 l 567 750 q 520 815 541 787 q 430 893 453 882 l 385 642 q 504 576 469 589 q 659 549 615 549 m 325 705 l 325 905 q 273 839 273 862 q 286 772 273 806 m 439 432 l 439 437 q 385 564 410 531 q 427 395 415 376 z "},"%":{"ha":1435,"x_min":35,"x_max":1400,"o":"m 653 633 q 635 629 645 633 q 602 595 608 608 l 596 485 q 551 367 572 389 q 431 318 468 318 q 190 331 220 318 q 104 418 116 388 l 92 562 q 71 617 79 608 q 35 633 43 633 q 53 648 43 644 q 85 683 79 669 l 92 796 q 134 909 113 886 q 257 961 216 961 q 502 947 471 961 q 586 856 575 886 l 596 715 q 617 661 608 669 q 653 644 645 644 m 921 961 l 574 0 l 859 961 m 428 437 l 428 842 q 368 908 399 908 q 274 890 289 908 l 260 437 q 319 371 291 371 q 412 389 397 371 m 1400 315 q 1382 311 1392 315 q 1349 277 1354 290 l 1343 167 q 1298 48 1319 71 q 1178 0 1215 0 q 937 13 968 0 q 851 100 863 70 l 839 244 q 818 299 827 290 q 782 315 790 315 q 800 330 790 326 q 833 365 827 351 l 839 478 q 881 591 860 568 q 1004 643 964 643 q 1249 629 1219 643 q 1332 538 1322 568 l 1343 397 q 1364 342 1355 351 q 1400 326 1392 326 m 1175 119 l 1175 524 q 1116 590 1146 590 q 1022 572 1036 590 l 1007 119 q 1067 53 1038 53 q 1160 71 1144 53 z "},"&":{"ha":1105,"x_min":49,"x_max":1105,"o":"m 1105 318 q 1026 269 1057 304 l 974 187 q 929 265 944 250 q 863 296 880 296 l 852 107 q 881 36 868 49 q 942 9 925 9 l 372 0 q 205 65 235 36 q 140 203 140 166 q 110 288 123 274 q 49 317 64 317 q 172 343 113 329 q 375 430 333 403 q 385 531 422 506 q 188 615 250 600 l 52 644 q 115 675 102 660 q 143 758 143 732 q 207 897 176 868 q 376 961 323 961 q 711 968 694 961 q 763 1016 755 1000 l 779 1048 l 768 675 q 671 833 706 801 q 511 907 553 907 q 439 900 459 907 q 382 848 391 867 l 374 789 q 518 484 451 561 q 466 411 492 446 q 384 255 397 298 l 371 160 q 404 79 389 92 q 478 54 457 54 q 593 76 572 54 l 615 457 l 852 349 q 898 357 880 349 q 956 415 944 395 l 982 457 q 1105 326 1059 339 z "},"'":{"ha":309,"x_min":35,"x_max":273,"o":"m 273 825 q 235 791 253 812 q 179 678 189 712 l 144 606 q 106 740 120 711 q 35 825 56 812 q 108 881 77 847 l 158 961 q 273 833 227 849 z "},"(":{"ha":492,"x_min":35,"x_max":457,"o":"m 457 -87 l 317 -87 q 176 -36 201 -61 q 123 110 123 63 q 116 575 123 557 q 67 626 83 619 l 35 644 q 95 671 83 659 q 123 741 123 720 q 137 936 123 899 q 236 1037 200 1023 l 457 1050 l 364 996 q 279 914 279 951 q 302 -11 279 11 l 457 -33 z "},"*":{"ha":644,"x_min":41,"x_max":603,"o":"m 602 484 l 597 475 q 475 440 498 464 q 471 460 469 453 q 455 516 472 498 q 394 529 404 533 q 364 499 369 509 q 375 439 359 454 l 418 410 q 326 319 336 354 q 283 378 308 355 l 227 416 q 285 478 285 454 q 269 516 276 509 q 229 533 241 533 q 172 472 172 498 q 179 444 177 449 q 113 474 146 465 l 43 484 q 74 608 83 576 q 111 591 97 597 q 159 589 149 585 q 188 619 184 609 q 175 679 192 664 q 109 689 123 694 l 74 672 q 41 796 68 770 q 114 806 81 796 l 180 835 q 172 808 172 814 q 229 749 206 749 q 285 802 285 778 q 227 863 252 857 q 283 903 259 881 l 326 962 q 418 872 385 881 q 376 842 392 857 q 375 765 359 781 q 455 764 438 749 q 470 821 472 814 l 473 840 q 597 806 559 796 q 570 738 577 770 l 564 668 q 510 694 522 694 q 453 639 453 664 q 509 585 484 585 q 562 612 549 597 q 570 541 562 574 z "},"+":{"ha":589,"x_min":35,"x_max":554,"o":"m 554 453 l 323 453 l 265 222 l 35 453 l 265 510 l 323 742 l 554 510 z "},"-":{"ha":575,"x_min":35,"x_max":541,"o":"m 541 476 q 472 438 500 465 l 147 376 q 35 476 77 465 q 104 523 77 496 l 428 585 q 541 485 498 496 z "},"/":{"ha":547,"x_min":35,"x_max":513,"o":"m 513 1050 l 100 -87 l 449 1050 z "},":":{"ha":325,"x_min":35,"x_max":290,"o":"m 290 131 q 210 82 242 117 l 158 0 q 35 131 79 118 q 113 185 79 151 l 167 269 q 290 139 242 153 m 290 478 q 210 429 242 465 l 158 347 q 35 478 79 465 q 113 532 79 498 l 167 616 q 290 486 242 500 z "},";":{"ha":325,"x_min":35,"x_max":290,"o":"m 290 478 q 210 429 242 465 l 158 347 q 35 478 79 465 q 113 532 79 498 l 167 616 q 290 486 242 500 m 285 132 q 194 48 235 102 l 111 -87 q 92 59 100 34 q 47 132 62 117 q 82 160 65 149 q 140 224 129 204 l 167 269 q 285 140 240 155 z "},"=":{"ha":589,"x_min":35,"x_max":554,"o":"m 554 386 l 35 386 l 554 443 m 554 519 l 35 519 l 554 576 z "},"?":{"ha":793,"x_min":77,"x_max":793,"o":"m 793 633 q 632 619 702 633 q 420 531 457 561 q 322 394 336 431 l 245 318 q 319 512 294 472 q 420 654 397 621 q 471 789 471 752 q 462 848 471 828 q 405 900 425 894 l 345 907 q 185 833 220 866 q 87 675 98 718 l 77 1048 q 93 1016 86 1031 q 144 968 126 975 l 468 961 q 637 897 607 926 q 701 758 701 795 q 730 674 718 689 q 793 644 777 644 m 400 131 q 320 82 352 117 l 268 0 q 144 131 189 118 q 222 185 189 151 l 277 269 q 400 139 352 153 z "},"A":{"ha":1036,"x_min":69,"x_max":966,"o":"m 966 0 l 549 0 q 582 17 566 9 q 630 67 623 50 l 637 296 q 599 288 616 296 q 540 230 552 250 l 514 187 q 468 266 483 252 q 403 296 419 296 l 399 107 q 426 37 414 50 q 488 9 471 9 l 69 0 q 103 17 87 9 q 151 67 143 50 l 158 221 q 131 289 143 277 q 69 317 86 317 q 102 335 86 328 q 151 386 143 368 l 158 725 q 223 893 192 862 q 395 961 341 961 q 739 943 695 961 q 861 819 844 862 l 878 424 q 906 355 893 368 q 966 328 950 328 q 934 309 950 317 q 885 259 893 277 l 878 107 q 905 37 892 50 q 966 9 949 9 m 637 349 l 637 825 q 554 907 593 907 q 421 885 444 907 l 399 349 q 437 357 420 349 q 495 414 484 394 l 522 457 q 567 379 553 394 q 633 349 616 349 z "},"B":{"ha":956,"x_min":69,"x_max":872,"o":"m 872 236 q 856 142 872 186 q 733 18 777 36 l 69 0 q 103 17 87 9 q 151 67 143 50 l 158 854 q 130 926 142 913 q 69 951 85 951 l 614 961 q 783 896 752 926 q 850 725 850 778 q 717 608 782 632 q 647 469 613 498 q 794 367 755 389 l 872 236 m 618 764 l 618 825 q 534 907 571 907 q 411 811 399 858 q 488 643 463 680 q 570 616 556 595 q 612 710 606 684 m 639 136 l 639 231 q 587 403 610 363 q 481 549 508 515 q 399 673 410 644 l 555 54 q 639 136 639 94 z "},"C":{"ha":878,"x_min":56,"x_max":802,"o":"m 791 -87 q 784 -55 791 -71 q 734 -7 751 -14 l 380 0 q 212 64 242 35 q 147 203 147 165 q 118 288 131 274 q 56 317 72 317 q 87 335 72 328 q 137 385 129 368 l 144 725 q 210 894 178 863 q 382 961 328 961 q 722 968 704 961 q 772 1016 765 1000 l 789 1048 l 778 675 q 680 833 715 801 q 521 907 563 907 q 407 886 430 907 l 385 136 q 468 54 428 54 q 638 139 593 96 q 790 401 766 313 l 802 -87 z "},"D":{"ha":1003,"x_min":69,"x_max":878,"o":"m 878 236 q 860 140 878 183 q 736 17 780 35 l 69 0 q 103 17 87 9 q 151 68 144 50 l 158 854 q 130 926 142 914 q 69 951 85 951 l 642 961 q 813 894 782 926 q 878 725 878 776 m 637 136 l 637 825 q 553 907 593 907 l 399 54 q 616 76 594 54 z "},"E":{"ha":913,"x_min":83,"x_max":829,"o":"m 819 -87 q 812 -55 819 -71 q 762 -7 779 -14 l 83 0 q 116 17 100 9 q 165 67 157 50 l 172 220 q 144 289 157 276 q 83 317 100 317 q 115 335 99 328 q 164 385 156 367 l 172 854 q 144 926 157 913 q 83 951 100 951 l 710 961 q 780 987 767 975 q 807 1048 807 1031 l 817 675 q 769 759 795 718 q 632 886 673 866 l 412 907 l 416 349 q 484 380 469 366 q 528 457 522 435 q 582 373 550 406 l 660 318 q 536 187 549 234 q 510 230 522 210 q 451 288 468 279 l 412 296 l 481 54 q 631 110 597 84 q 750 241 726 203 q 818 401 808 362 l 829 -87 z "},"F":{"ha":844,"x_min":83,"x_max":817,"o":"m 501 0 l 83 0 q 117 17 101 9 q 165 68 158 50 l 172 220 q 144 289 157 276 q 83 317 100 317 q 115 335 100 328 q 164 385 157 368 l 172 854 q 144 926 157 913 q 83 951 100 951 l 710 961 q 780 987 767 975 q 807 1048 807 1031 l 817 675 q 769 759 795 718 q 632 886 673 866 l 412 907 l 416 349 q 484 380 469 366 q 528 457 522 435 q 582 373 550 406 l 660 318 q 536 187 548 235 q 510 230 522 210 q 451 288 468 279 l 412 296 q 420 67 412 85 q 469 16 453 23 l 501 0 z "},"G":{"ha":993,"x_min":62,"x_max":958,"o":"m 958 0 l 387 0 q 216 67 247 35 q 151 236 151 185 q 144 575 151 558 q 95 626 111 618 l 62 644 q 124 673 111 659 q 154 758 154 730 q 219 897 188 869 q 387 961 336 961 q 730 968 712 961 q 780 1016 773 1000 l 798 1048 l 786 675 q 688 833 724 801 q 529 907 571 907 q 413 884 434 907 l 392 136 q 475 54 435 54 q 610 76 589 54 l 632 536 q 603 608 616 596 q 543 633 559 633 l 958 643 q 925 627 941 633 q 877 576 884 594 l 869 107 q 897 37 884 50 q 958 9 941 9 z "},"H":{"ha":1064,"x_min":83,"x_max":981,"o":"m 981 0 l 562 0 q 596 17 580 9 q 644 68 637 50 l 652 612 q 613 604 630 612 q 554 547 566 567 l 528 504 q 482 583 497 568 q 416 612 433 612 l 412 107 q 440 36 428 49 q 501 9 485 9 l 83 0 q 116 17 100 9 q 165 67 157 50 l 172 536 q 144 606 157 593 q 83 633 100 633 q 116 652 100 644 q 164 703 157 685 l 172 854 q 144 926 157 913 q 83 951 100 951 l 501 961 q 469 945 485 951 q 420 896 428 913 l 412 665 q 451 673 434 665 q 509 731 498 711 l 536 774 q 581 696 566 711 q 647 665 630 665 l 652 854 q 623 926 636 913 q 562 951 578 951 l 981 961 q 948 945 964 951 q 900 896 907 913 l 892 741 q 919 672 907 685 q 981 644 964 644 q 948 626 964 633 q 900 575 907 593 l 892 107 q 919 37 907 50 q 981 9 964 9 z "},"I":{"ha":557,"x_min":69,"x_max":488,"o":"m 488 0 l 69 0 q 103 17 87 9 q 151 67 143 50 l 158 854 q 130 926 142 913 q 69 951 85 951 l 488 961 q 455 945 471 951 q 406 895 414 913 l 399 107 q 426 36 414 49 q 488 9 471 9 z "},"J":{"ha":843,"x_min":28,"x_max":774,"o":"m 774 951 q 741 945 757 951 q 692 895 700 913 l 685 236 q 620 68 651 100 q 449 0 502 0 q 96 -7 114 0 q 44 -55 52 -39 l 28 -87 l 39 401 q 191 139 145 182 q 361 54 327 54 q 444 136 444 94 q 436 897 444 878 q 387 945 402 939 l 355 961 l 774 951 z "},"K":{"ha":996,"x_min":69,"x_max":961,"o":"m 961 0 l 550 0 q 584 17 568 9 q 632 68 625 50 l 639 231 q 590 398 612 357 q 472 559 507 518 q 421 437 431 474 q 399 271 399 317 q 406 67 399 85 q 455 16 439 23 l 488 0 l 69 9 q 131 37 119 24 q 158 107 158 85 q 150 896 158 878 q 101 945 117 939 l 69 961 l 488 951 q 426 925 439 938 q 399 854 399 877 q 441 627 414 581 q 582 801 539 760 q 768 941 719 913 l 867 675 q 836 722 853 703 q 729 756 764 759 q 582 692 620 722 q 577 534 538 574 q 765 384 712 417 l 872 107 q 900 36 888 49 q 961 9 945 9 z "},"L":{"ha":843,"x_min":69,"x_max":815,"o":"m 806 -87 q 799 -55 806 -71 q 747 -7 765 -14 l 69 0 q 103 17 87 9 q 151 67 143 50 l 158 854 q 130 926 142 913 q 69 951 85 951 l 488 961 q 455 945 471 951 q 406 895 414 913 l 399 54 q 545 69 507 54 q 682 169 652 135 q 777 321 760 280 l 815 401 l 806 -87 z "},"M":{"ha":1231,"x_min":69,"x_max":1161,"o":"m 1161 0 l 743 0 q 776 17 760 9 q 825 67 817 50 l 832 872 q 693 753 717 793 q 646 554 646 612 q 654 405 646 423 q 707 345 690 356 l 743 319 q 664 271 680 288 q 619 189 625 213 q 568 271 601 235 l 488 328 q 552 369 538 354 q 585 443 585 422 q 537 753 585 671 l 399 107 q 426 36 414 49 q 488 9 471 9 l 69 0 q 103 17 87 9 q 151 67 143 50 l 158 854 q 130 926 142 913 q 69 951 85 951 l 211 961 q 472 898 420 929 q 615 714 596 774 q 1021 961 861 961 l 1161 951 q 1101 926 1114 939 q 1072 854 1072 878 q 1080 67 1072 85 q 1128 17 1112 24 l 1161 0 z "},"N":{"ha":1038,"x_min":69,"x_max":968,"o":"m 968 0 l 550 0 q 583 16 567 9 q 631 67 624 49 l 639 371 q 563 702 597 644 q 399 857 443 836 q 406 67 399 85 q 454 17 438 24 l 488 0 l 69 9 q 131 37 119 24 q 158 107 158 85 q 150 896 158 878 q 101 945 117 939 l 69 961 q 350 936 270 961 q 582 776 545 829 l 639 961 l 968 951 q 907 925 920 938 q 879 854 879 877 q 887 67 879 85 q 936 16 920 23 l 968 0 z "},"O":{"ha":1036,"x_min":69,"x_max":966,"o":"m 966 317 q 934 309 950 317 q 883 252 891 273 q 858 129 875 165 q 737 18 780 35 l 395 0 q 226 64 256 35 q 161 203 161 165 q 132 288 145 274 q 69 317 85 317 q 102 335 86 328 q 151 386 143 368 l 158 725 q 223 894 192 863 q 395 961 342 961 q 738 943 694 961 q 861 819 844 863 l 878 425 q 906 356 893 369 q 966 328 950 328 m 637 136 l 637 825 q 554 907 592 907 q 420 885 442 907 l 399 136 q 482 54 441 54 q 616 77 595 54 z "},"P":{"ha":878,"x_min":69,"x_max":850,"o":"m 850 633 q 726 614 791 633 q 487 464 539 519 l 399 107 q 426 37 414 50 q 488 9 471 9 l 69 0 q 102 16 86 9 q 151 67 143 49 l 158 854 q 130 926 142 914 q 69 951 85 951 l 614 961 q 785 894 754 926 q 850 725 850 776 m 618 758 l 618 825 q 534 907 570 907 l 399 449 q 479 538 455 515 q 573 637 553 610 q 618 758 618 724 z "},"Q":{"ha":1036,"x_min":69,"x_max":1000,"o":"m 637 336 l 637 825 q 554 907 592 907 q 420 885 442 907 l 399 336 q 473 387 458 369 q 513 465 509 445 q 537 425 527 446 q 597 356 578 370 m 637 136 l 637 309 q 576 271 590 285 q 545 200 545 222 l 554 54 q 637 136 637 100 m 492 54 l 492 200 q 460 270 474 256 q 399 309 414 303 q 420 77 399 100 l 492 54 m 966 317 q 934 309 950 317 q 883 252 891 273 q 858 129 875 165 q 737 18 780 35 l 545 0 q 551 -55 545 -39 q 595 -100 580 -94 l 757 -107 q 824 -75 809 -90 q 868 1 862 -21 q 922 -83 890 -49 l 1000 -138 q 876 -268 889 -222 q 850 -225 862 -245 q 791 -168 808 -176 l 629 -160 q 533 -120 551 -138 q 492 -22 492 -51 l 395 0 q 226 64 256 35 q 161 203 161 165 q 132 288 145 274 q 69 317 85 317 q 102 335 86 328 q 151 386 143 368 l 158 725 q 223 894 192 863 q 395 961 342 961 q 738 943 694 961 q 861 819 844 863 l 878 425 q 906 356 893 369 q 966 328 950 328 z "},"R":{"ha":982,"x_min":69,"x_max":961,"o":"m 961 0 l 550 0 q 584 17 568 9 q 631 67 624 50 l 639 231 q 587 403 610 363 q 481 549 508 515 q 399 673 410 644 q 406 67 399 85 q 454 17 438 24 l 488 0 l 69 9 q 131 37 119 24 q 158 107 158 85 q 150 896 158 878 q 101 945 117 939 l 69 961 q 709 944 665 961 q 832 821 814 865 l 850 633 q 585 526 653 585 q 716 417 680 443 q 872 326 831 345 q 880 67 872 85 q 929 16 913 23 l 961 0 m 618 764 l 618 825 q 534 907 574 907 q 411 808 399 856 q 490 640 465 677 q 570 616 556 595 q 612 710 606 684 z "},"S":{"ha":940,"x_min":56,"x_max":940,"o":"m 940 317 q 908 310 924 317 q 857 253 865 274 q 832 130 848 166 q 711 18 754 36 l 243 0 q 173 -26 186 -14 q 146 -87 146 -71 l 136 401 q 174 321 157 362 q 270 169 239 203 q 407 69 368 84 l 511 54 q 586 79 571 66 q 618 160 618 132 q 599 273 618 219 q 460 475 510 430 q 211 610 285 589 l 56 644 q 118 674 105 660 q 147 758 147 731 q 211 897 180 868 q 380 961 328 961 q 723 968 705 961 q 773 1016 766 1000 l 790 1048 l 779 675 q 682 833 717 801 q 522 907 564 907 q 444 900 463 907 q 386 848 395 867 l 378 789 q 459 571 421 621 q 666 400 604 433 q 940 328 868 330 z "},"T":{"ha":860,"x_min":14,"x_max":846,"o":"m 639 0 l 221 0 q 254 17 238 9 q 302 67 295 50 l 310 907 q 199 886 241 907 q 62 759 87 801 l 14 675 l 24 1048 q 51 987 38 1000 q 121 961 100 961 q 779 968 761 961 q 829 1016 822 1000 l 846 1048 l 835 675 q 737 833 772 801 q 578 907 620 907 l 550 107 q 577 37 565 50 q 639 9 622 9 z "},"U":{"ha":1036,"x_min":69,"x_max":966,"o":"m 966 317 q 935 310 951 317 q 883 253 892 274 q 858 129 875 165 q 737 18 780 35 l 395 0 q 226 64 256 35 q 161 203 161 165 q 132 288 145 274 q 69 317 85 317 q 102 335 86 328 q 151 386 143 368 l 158 854 q 130 926 142 913 q 69 951 85 951 l 488 961 q 455 945 471 951 q 406 895 414 913 l 399 136 q 482 54 441 54 q 616 77 595 54 l 637 854 q 609 925 622 913 q 549 951 565 951 l 966 961 q 935 945 950 951 q 885 896 893 913 l 878 424 q 906 355 893 368 q 966 328 950 328 z "},"V":{"ha":1008,"x_min":56,"x_max":953,"o":"m 953 317 q 874 303 916 315 q 705 220 747 249 q 558 82 589 121 l 500 0 q 382 156 420 121 q 218 270 261 249 q 56 317 92 315 q 87 335 72 328 q 137 385 129 368 l 144 854 q 116 926 129 913 q 56 951 72 951 l 473 961 q 441 945 457 951 q 392 896 400 913 l 385 231 q 449 172 433 189 q 504 103 494 119 q 559 172 543 155 q 624 231 609 219 q 616 895 624 877 q 567 945 583 938 l 534 961 l 953 951 q 891 925 904 938 q 864 854 864 877 q 872 386 864 404 q 921 335 905 342 l 953 317 z "},"W":{"ha":1203,"x_min":56,"x_max":1147,"o":"m 1147 317 q 1069 303 1111 315 q 898 219 941 248 q 751 81 781 121 l 694 0 q 602 149 614 106 q 509 0 539 28 q 452 81 482 42 q 305 219 347 191 q 134 303 176 291 l 56 328 q 116 354 103 342 q 144 424 144 403 q 136 896 144 878 q 87 945 103 939 l 56 961 l 473 951 q 413 926 426 939 q 385 854 385 878 q 418 202 400 218 q 485 131 470 150 q 533 138 522 113 q 566 253 562 221 l 571 518 q 538 592 553 576 q 473 633 490 629 q 515 660 495 648 q 580 727 568 706 l 606 772 q 650 690 633 707 q 729 642 706 648 q 694 616 711 627 q 641 557 649 575 l 632 315 q 650 194 642 222 q 693 96 680 114 q 750 168 733 150 q 818 231 802 218 q 810 896 818 878 q 761 945 777 939 l 729 961 l 1147 951 q 1087 926 1100 939 q 1059 854 1059 878 q 1066 386 1059 404 q 1115 335 1099 342 l 1147 317 z "},"X":{"ha":1017,"x_min":60,"x_max":957,"o":"m 954 633 q 829 621 885 633 q 636 540 678 568 q 615 431 581 455 q 771 350 726 366 l 868 109 q 895 37 883 50 q 957 9 940 9 l 539 0 q 572 17 556 9 q 621 67 613 50 l 628 355 q 509 441 534 420 q 389 355 418 373 q 396 67 389 85 q 445 17 429 24 l 478 0 l 60 9 q 122 38 111 24 q 149 107 149 86 q 247 351 201 334 q 404 433 372 410 q 375 544 418 515 q 181 622 235 612 l 62 644 q 123 671 111 659 q 151 741 151 720 q 143 896 151 878 q 95 945 111 939 l 62 961 l 478 951 q 417 926 430 939 q 389 854 389 878 q 417 583 404 592 q 473 542 457 554 q 572 564 543 543 l 628 854 q 600 926 612 913 q 539 951 555 951 l 954 961 q 922 945 938 951 q 873 896 881 913 l 865 741 q 893 671 881 684 q 954 644 938 644 z "},"Y":{"ha":983,"x_min":49,"x_max":935,"o":"m 935 633 q 846 615 891 631 q 678 526 716 554 l 611 107 q 638 37 626 50 q 700 9 683 9 l 283 0 q 316 17 300 9 q 365 67 357 50 l 372 471 q 206 587 248 566 q 49 633 83 632 q 81 651 65 644 q 130 702 122 684 l 138 854 q 109 926 122 913 q 49 951 65 951 l 464 961 q 432 945 448 951 q 383 896 391 913 l 375 545 q 436 490 420 505 q 492 422 480 439 q 608 545 579 521 q 601 896 608 878 q 551 945 567 939 l 519 961 l 935 951 q 874 926 887 939 q 846 854 846 878 q 853 702 846 720 q 903 651 887 659 l 935 633 z "},"Z":{"ha":850,"x_min":97,"x_max":766,"o":"m 757 -87 q 750 -55 757 -71 q 699 -7 717 -14 l 97 0 l 433 907 q 296 886 338 907 q 159 759 184 801 l 111 675 l 121 1048 q 148 987 135 1000 q 218 961 197 961 l 745 949 l 418 54 q 569 110 534 84 q 687 241 663 203 q 755 401 746 362 l 766 -87 z "},"[":{"ha":519,"x_min":62,"x_max":485,"o":"m 485 -87 l 62 -87 q 95 -71 79 -78 q 144 -21 136 -39 l 151 536 q 123 606 136 593 q 62 633 79 633 q 94 651 78 644 q 143 702 136 684 l 151 943 q 123 1015 136 1002 q 62 1040 79 1040 l 485 1050 l 307 996 l 485 -33 z "},"^":{"ha":439,"x_min":35,"x_max":404,"o":"m 404 397 l 311 397 l 127 397 l 129 566 l 404 397 z "},"_":{"ha":966,"x_min":35,"x_max":932,"o":"m 932 -87 l 35 -87 l 932 -31 z "},"`":{"ha":296,"x_min":35,"x_max":261,"o":"m 261 1025 l 174 1025 l 35 1193 l 261 1025 z "},"{":{"ha":492,"x_min":35,"x_max":457,"o":"m 457 -87 l 317 -87 q 176 -36 201 -61 q 123 110 123 63 q 116 575 123 557 q 67 626 83 619 l 35 644 q 95 671 83 659 q 123 741 123 720 q 137 936 123 899 q 236 1037 200 1023 l 457 1050 l 364 996 q 279 914 279 951 q 271 744 279 774 q 217 659 234 672 q 217 619 200 632 q 271 534 262 564 l 279 49 q 364 -33 326 -33 l 457 -87 z "},"|":{"ha":129,"x_min":35,"x_max":94,"o":"m 94 -87 l 35 -87 l 94 1050 z "},"~":{"ha":525,"x_min":35,"x_max":490,"o":"m 490 568 l 396 399 l 135 392 l 129 561 l 390 568 z "},"Ä":{"ha":1036,"x_min":69,"x_max":966,"o":"m 966 0 l 549 0 q 582 17 566 9 q 630 67 623 50 l 637 296 q 599 288 616 296 q 540 230 552 250 l 514 187 q 468 266 483 252 q 403 296 419 296 l 399 107 q 426 37 414 50 q 488 9 471 9 l 69 0 q 103 17 87 9 q 151 67 143 50 l 158 221 q 131 289 143 277 q 69 317 86 317 q 102 335 86 328 q 151 386 143 368 l 158 725 q 223 893 192 862 q 395 961 341 961 q 739 943 695 961 q 861 819 844 862 l 878 424 q 906 355 893 368 q 966 328 950 328 q 934 309 950 317 q 885 259 893 277 l 878 107 q 905 37 892 50 q 966 9 949 9 m 637 349 l 637 825 q 554 907 593 907 q 421 885 444 907 l 399 349 q 437 357 420 349 q 495 414 484 394 l 522 457 q 567 379 553 394 q 633 349 616 349 m 503 1108 q 422 1060 454 1095 l 371 978 q 248 1108 292 1096 q 325 1163 292 1129 l 379 1247 q 503 1117 454 1131 m 787 1108 q 707 1060 739 1095 l 656 978 q 532 1108 576 1096 q 610 1163 576 1129 l 664 1247 q 787 1117 739 1131 z "},"Å":{"ha":1036,"x_min":69,"x_max":966,"o":"m 966 0 l 549 0 q 582 17 566 9 q 630 67 623 50 l 637 296 q 599 288 616 296 q 540 230 552 250 l 514 187 q 468 266 483 252 q 403 296 419 296 l 399 107 q 426 37 414 50 q 488 9 471 9 l 69 0 q 103 17 87 9 q 151 67 143 50 l 158 221 q 131 289 143 277 q 69 317 86 317 q 102 335 86 328 q 151 386 143 368 l 158 725 q 223 893 192 862 q 395 961 341 961 q 739 943 695 961 q 861 819 844 862 l 878 424 q 906 355 893 368 q 966 328 950 328 q 934 309 950 317 q 885 259 893 277 l 878 107 q 905 37 892 50 q 966 9 949 9 m 637 349 l 637 825 q 554 907 593 907 q 421 885 444 907 l 399 349 q 437 357 420 349 q 495 414 484 394 l 522 457 q 567 379 553 394 q 633 349 616 349 m 530 1109 q 526 1126 530 1120 q 510 1126 514 1132 q 510 1093 505 1097 q 526 1093 522 1088 m 642 1109 q 632 1073 642 1090 q 567 1023 589 1030 q 470 1023 492 1015 q 404 1073 414 1055 q 404 1146 395 1129 q 469 1197 446 1190 q 567 1197 544 1204 q 632 1146 623 1164 z "},"Ç":{"ha":878,"x_min":56,"x_max":802,"o":"m 791 -87 q 784 -55 791 -71 q 734 -7 751 -14 l 492 0 q 511 -57 494 -50 q 561 -102 553 -87 q 547 -194 568 -170 q 423 -252 461 -246 l 378 -186 q 408 -150 406 -159 q 395 -114 403 -121 l 380 0 q 212 64 242 35 q 147 203 147 165 q 118 288 131 274 q 56 317 72 317 q 87 335 72 328 q 137 385 129 368 l 144 725 q 210 894 178 863 q 382 961 328 961 q 722 968 704 961 q 772 1016 765 1000 l 789 1048 l 778 675 q 680 833 715 801 q 521 907 563 907 q 407 886 430 907 l 385 136 q 468 54 428 54 q 638 139 593 96 q 790 401 766 313 l 802 -87 z "},"É":{"ha":913,"x_min":83,"x_max":829,"o":"m 819 -87 q 812 -55 819 -71 q 762 -7 779 -14 l 83 0 q 116 17 100 9 q 165 67 157 50 l 172 220 q 144 289 157 276 q 83 317 100 317 q 115 335 99 328 q 164 385 156 367 l 172 854 q 144 926 157 913 q 83 951 100 951 l 710 961 q 780 987 767 975 q 807 1048 807 1031 l 817 675 q 769 759 795 718 q 632 886 673 866 l 412 907 l 416 349 q 484 380 469 366 q 528 457 522 435 q 582 373 550 406 l 660 318 q 536 187 549 234 q 510 230 522 210 q 451 288 468 279 l 412 296 l 481 54 q 631 110 597 84 q 750 241 726 203 q 818 401 808 362 l 829 -87 m 591 1181 l 453 1025 l 421 1193 l 591 1181 z "},"Ñ":{"ha":1038,"x_min":69,"x_max":968,"o":"m 968 0 l 550 0 q 583 16 567 9 q 631 67 624 49 l 639 371 q 563 702 597 644 q 399 857 443 836 q 406 67 399 85 q 454 17 438 24 l 488 0 l 69 9 q 131 37 119 24 q 158 107 158 85 q 150 896 158 878 q 101 945 117 939 l 69 961 q 350 936 270 961 q 582 776 545 829 l 639 961 l 968 951 q 907 925 920 938 q 879 854 879 877 q 887 67 879 85 q 936 16 920 23 l 968 0 m 746 1202 l 652 1032 l 390 1025 l 385 1194 l 646 1202 z "},"Ö":{"ha":1036,"x_min":69,"x_max":966,"o":"m 966 317 q 934 309 950 317 q 883 252 891 273 q 858 129 875 165 q 737 18 780 35 l 395 0 q 226 64 256 35 q 161 203 161 165 q 132 288 145 274 q 69 317 85 317 q 102 335 86 328 q 151 386 143 368 l 158 725 q 223 894 192 863 q 395 961 342 961 q 738 943 694 961 q 861 819 844 863 l 878 425 q 906 356 893 369 q 966 328 950 328 m 637 136 l 637 825 q 554 907 592 907 q 420 885 442 907 l 399 136 q 482 54 441 54 q 616 77 595 54 m 504 1108 q 424 1060 456 1095 l 372 978 q 249 1108 294 1096 q 327 1163 294 1129 l 380 1247 q 504 1117 456 1131 m 789 1108 q 709 1060 741 1095 l 657 978 q 533 1108 578 1096 q 611 1163 578 1129 l 665 1247 q 789 1117 741 1131 z "},"Ü":{"ha":1036,"x_min":69,"x_max":966,"o":"m 966 317 q 935 310 951 317 q 883 253 892 274 q 858 129 875 165 q 737 18 780 35 l 395 0 q 226 64 256 35 q 161 203 161 165 q 132 288 145 274 q 69 317 85 317 q 102 335 86 328 q 151 386 143 368 l 158 854 q 130 926 142 913 q 69 951 85 951 l 488 961 q 455 945 471 951 q 406 895 414 913 l 399 136 q 482 54 441 54 q 616 77 595 54 l 637 854 q 609 925 622 913 q 549 951 565 951 l 966 961 q 935 945 950 951 q 885 896 893 913 l 878 424 q 906 355 893 368 q 966 328 950 328 m 503 1108 q 422 1060 454 1095 l 371 978 q 248 1108 292 1096 q 325 1163 292 1129 l 379 1247 q 503 1117 454 1131 m 787 1108 q 707 1060 739 1095 l 656 978 q 532 1108 576 1096 q 610 1163 576 1129 l 664 1247 q 787 1117 739 1131 z "},"†":{"ha":966,"x_min":35,"x_max":932,"o":"m 932 633 q 854 587 887 621 l 800 503 q 764 572 776 559 q 705 600 722 600 q 651 578 662 588 q 624 533 627 545 l 587 40 q 543 13 552 23 q 521 -41 521 -25 q 549 -100 536 -87 q 618 -136 597 -131 q 534 -190 568 -157 l 479 -268 q 430 -188 447 -203 q 349 -144 372 -151 q 419 -99 393 -125 q 440 -12 446 -25 q 403 30 415 22 l 379 533 q 333 556 340 545 q 291 594 304 588 q 230 593 245 600 q 181 541 191 559 l 158 503 q 35 633 79 621 q 79 661 59 648 q 142 729 131 708 l 167 772 q 261 675 230 675 q 315 696 304 687 q 343 742 340 730 l 379 778 q 425 806 415 795 q 446 860 446 844 q 349 954 393 943 q 430 1005 395 974 l 488 1086 q 618 962 568 975 q 548 918 576 943 q 527 830 521 844 q 564 788 552 795 l 587 742 q 634 718 627 730 q 676 681 663 687 q 763 702 737 675 l 808 772 q 932 642 883 655 z "},"¢":{"ha":659,"x_min":56,"x_max":582,"o":"m 572 262 q 568 279 572 270 q 531 312 544 307 l 410 318 l 350 252 l 279 318 q 160 364 182 342 q 113 481 113 446 q 106 690 113 677 q 73 724 83 720 l 56 739 q 95 759 87 749 q 114 812 114 796 q 161 919 139 899 q 279 961 244 961 l 350 1026 l 410 961 q 519 967 506 961 q 557 998 552 989 l 572 1015 l 562 750 q 492 854 512 835 q 410 903 430 897 q 458 414 434 396 q 542 512 524 480 l 582 583 l 572 262 m 350 371 l 350 908 q 297 895 314 908 l 281 428 q 336 371 313 371 z "},"£":{"ha":665,"x_min":62,"x_max":589,"o":"m 579 262 q 574 279 579 270 q 538 312 551 307 l 62 318 q 82 332 72 328 q 114 367 109 354 l 119 468 q 98 523 107 515 q 62 539 70 539 q 80 554 71 550 q 113 588 107 574 l 119 799 q 167 915 144 893 q 286 961 250 961 q 527 967 513 961 q 565 998 559 989 l 579 1015 l 570 750 q 481 869 507 850 q 378 908 402 908 q 302 893 316 908 l 288 574 q 321 579 311 574 q 358 615 351 603 l 379 642 q 408 586 397 598 q 464 553 448 556 q 434 529 448 538 q 390 482 397 496 l 368 453 q 341 501 351 492 q 300 521 311 521 l 288 371 q 410 384 376 371 q 535 489 509 449 l 589 583 l 579 262 z "},"•":{"ha":386,"x_min":35,"x_max":351,"o":"m 351 476 q 256 419 295 460 l 189 318 q 35 476 92 460 q 131 542 92 502 l 197 643 q 351 485 297 500 z "},"®":{"ha":1143,"x_min":90,"x_max":1053,"o":"m 1053 481 q 1035 353 1053 414 q 912 141 956 184 q 700 17 762 35 q 444 17 506 0 q 231 141 275 97 q 107 353 125 292 q 107 609 90 547 q 231 821 187 777 q 444 944 382 927 q 700 944 639 961 q 912 821 868 865 q 1035 609 1018 671 m 991 481 q 959 645 991 568 q 735 868 812 836 q 425 876 494 901 l 637 802 q 764 757 741 778 q 811 644 811 679 q 756 579 783 583 q 659 545 682 559 q 652 474 630 493 q 758 405 728 420 l 819 239 q 857 172 842 178 q 991 481 991 388 m 323 239 l 323 722 q 285 789 300 783 q 187 652 204 691 q 151 481 151 526 q 285 172 223 231 q 323 239 323 210 m 842 158 l 597 158 q 617 173 607 168 q 649 207 644 194 l 654 292 q 618 403 634 376 q 545 505 563 482 q 492 576 498 564 q 497 208 492 221 q 529 173 519 177 l 549 158 q 425 86 356 112 q 718 86 650 61 m 646 676 l 646 693 q 590 749 616 749 q 496 691 489 719 q 545 589 529 612 q 608 579 595 564 q 642 640 637 623 z "},"©":{"ha":1141,"x_min":90,"x_max":1051,"o":"m 1051 481 q 1014 294 1051 381 q 759 38 846 75 q 444 17 506 0 q 231 141 275 97 q 107 353 125 292 q 107 609 90 547 q 231 821 187 777 q 444 944 382 927 q 700 944 639 961 q 911 821 867 865 q 1034 609 1017 671 m 991 481 q 978 587 991 536 q 880 767 915 729 l 802 595 q 751 664 774 635 q 651 743 677 733 l 567 753 q 509 700 509 726 q 525 228 509 241 q 631 228 597 215 q 756 333 729 293 l 810 428 q 885 201 851 163 q 979 377 966 327 m 794 125 q 769 151 787 138 l 507 163 q 388 209 410 187 q 340 325 340 290 q 334 535 340 522 q 300 569 310 565 l 283 583 q 323 604 315 594 q 342 657 342 640 q 389 763 367 743 q 507 806 472 806 q 761 817 743 806 q 686 886 741 871 q 408 868 485 901 q 184 645 217 722 q 184 317 151 394 q 408 94 332 127 q 690 77 634 61 z "},"™":{"ha":1450,"x_min":14,"x_max":1360,"o":"m 1360 318 l 1078 318 q 1097 332 1086 328 q 1129 367 1124 353 l 1135 878 q 1058 808 1074 833 q 1019 679 1019 718 q 1038 567 1019 585 l 1083 532 q 1028 503 1040 514 q 994 447 998 463 q 950 503 976 479 l 895 543 q 958 614 958 585 q 947 750 958 718 q 883 850 903 833 l 843 397 q 862 345 854 353 q 900 328 891 328 l 618 318 q 637 332 627 328 q 669 367 664 354 l 675 882 q 655 935 664 926 q 618 951 627 951 l 721 961 q 989 812 952 884 q 1257 961 1158 961 l 1360 951 q 1322 935 1331 943 q 1303 882 1303 899 q 1308 367 1303 380 q 1340 332 1330 336 l 1360 318 m 572 750 q 529 824 553 794 q 428 900 453 892 l 382 397 q 401 345 393 354 q 439 328 429 328 l 157 318 q 176 332 165 328 q 208 367 203 353 l 214 908 q 169 900 193 908 q 67 824 92 854 l 14 750 l 24 1015 q 43 981 34 989 q 97 961 80 961 q 530 967 516 961 q 567 998 562 989 l 582 1015 l 572 750 z "},"´":{"ha":296,"x_min":35,"x_max":261,"o":"m 261 1181 l 122 1025 l 90 1193 l 261 1181 z "},"¨":{"ha":610,"x_min":35,"x_max":575,"o":"m 290 1108 q 210 1060 242 1095 l 158 978 q 35 1108 79 1096 q 113 1163 79 1129 l 167 1247 q 290 1117 242 1131 m 575 1108 q 495 1060 527 1095 l 443 978 q 319 1108 364 1096 q 397 1163 364 1129 l 452 1247 q 575 1117 527 1131 z "},"Æ":{"ha":1378,"x_min":69,"x_max":1295,"o":"m 637 349 l 637 825 q 554 907 593 907 q 421 885 444 907 l 399 349 q 437 357 420 349 q 495 414 484 394 l 522 457 q 567 379 553 394 q 633 349 616 349 m 1284 -87 q 1277 -55 1284 -71 q 1227 -7 1244 -14 l 549 0 q 582 17 566 9 q 630 67 623 50 l 637 296 q 599 288 616 296 q 540 230 552 250 l 514 187 q 468 266 483 252 q 403 296 419 296 l 399 107 q 426 37 414 50 q 488 9 471 9 l 69 0 q 103 17 87 9 q 151 67 143 50 l 158 221 q 131 289 143 277 q 69 317 86 317 q 102 335 86 328 q 151 386 143 368 l 158 725 q 223 893 192 862 q 395 961 341 961 q 1215 968 1197 961 q 1265 1016 1258 1000 l 1282 1048 l 1271 675 q 1173 833 1208 801 q 1014 907 1056 907 l 878 349 q 917 357 899 349 q 975 415 964 395 l 1002 457 q 1125 326 1079 339 q 1045 269 1076 304 l 993 187 q 948 265 964 250 q 882 296 899 296 l 878 54 q 1024 69 986 54 q 1161 169 1131 135 q 1256 321 1239 280 l 1295 401 l 1284 -87 z "},"Ø":{"ha":1036,"x_min":69,"x_max":966,"o":"m 966 317 q 934 309 950 317 q 883 252 891 273 q 858 129 875 165 q 737 18 780 35 l 395 0 q 374 1 380 0 l 283 -79 q 253 42 281 22 q 172 143 183 113 q 153 253 161 231 q 102 310 119 302 l 69 328 q 131 355 118 342 q 158 424 158 404 q 175 819 158 776 q 298 943 254 926 l 642 961 q 672 960 662 961 l 762 1042 q 790 914 762 935 q 867 800 857 836 l 878 425 q 906 356 893 369 q 966 328 950 328 m 633 856 q 605 893 626 880 l 482 907 q 399 825 399 863 l 633 856 m 637 136 l 637 704 q 436 65 418 75 l 554 54 q 637 136 637 100 z "},"¥":{"ha":747,"x_min":69,"x_max":677,"o":"m 677 728 q 626 719 654 727 q 512 663 541 683 l 456 514 l 653 457 l 456 397 q 475 345 467 354 q 513 328 503 328 l 235 318 q 254 332 244 328 q 286 367 281 354 l 292 457 l 94 514 l 292 618 q 178 697 207 683 q 69 728 94 727 q 87 743 77 739 q 120 777 114 764 l 126 882 q 106 935 115 926 q 69 951 77 951 l 347 961 q 328 947 338 951 q 296 912 301 926 l 290 688 q 331 652 320 663 q 374 606 364 617 q 416 652 405 641 q 457 688 449 682 q 452 912 457 899 q 419 947 429 943 l 400 961 l 677 951 q 640 934 648 943 q 621 882 621 899 q 626 779 621 792 q 659 744 648 748 l 677 728 z "},"¿":{"ha":793,"x_min":0,"x_max":717,"o":"m 707 -273 q 700 -240 707 -256 q 649 -193 667 -200 l 325 -186 q 155 -122 186 -151 q 92 17 92 -20 q 62 101 75 86 q 0 131 17 131 q 161 156 92 142 q 373 244 336 214 q 471 381 457 344 l 547 457 q 474 263 499 303 q 373 121 395 154 q 322 -14 322 23 q 331 -73 322 -53 q 388 -126 368 -119 l 449 -132 q 608 -59 572 -92 q 705 100 694 57 l 717 -273 m 648 636 q 568 588 600 623 l 517 505 q 393 636 438 623 q 471 691 438 657 l 525 775 q 648 644 600 658 z "},"¡":{"ha":555,"x_min":69,"x_max":486,"o":"m 486 -186 l 69 -186 q 101 -170 85 -176 q 150 -120 142 -138 l 158 457 l 397 -79 q 425 -150 412 -138 q 486 -176 469 -176 m 406 636 q 326 588 357 623 l 273 505 q 150 636 195 623 q 228 691 195 657 l 282 775 q 406 644 357 658 z "},"ƒ":{"ha":770,"x_min":14,"x_max":755,"o":"m 746 750 q 702 824 727 794 q 604 900 627 892 l 564 908 q 547 897 551 905 l 635 715 l 460 659 q 318 339 352 360 l 96 318 q 42 298 52 307 q 24 262 24 270 l 14 583 q 58 488 37 528 q 139 382 120 395 q 186 386 180 370 l 123 659 l 306 715 q 383 915 374 901 q 439 956 419 950 l 672 961 q 726 980 716 972 q 746 1015 746 1007 l 755 750 z "},"«":{"ha":443,"x_min":35,"x_max":408,"o":"m 204 294 l 35 390 l 204 667 l 143 481 l 204 294 m 408 294 l 239 390 l 408 667 l 347 481 l 408 294 z "},"…":{"ha":897,"x_min":35,"x_max":863,"o":"m 290 131 q 210 82 242 117 l 158 0 q 35 131 79 118 q 113 185 79 151 l 167 269 q 290 139 242 153 m 576 131 q 496 82 528 117 l 444 0 q 321 131 366 118 q 399 185 366 151 l 453 269 q 576 139 528 153 m 863 131 q 783 82 814 117 l 730 0 q 607 131 652 118 q 685 185 652 151 l 739 269 q 863 139 814 153 z "},"À":{"ha":1036,"x_min":69,"x_max":966,"o":"m 966 0 l 549 0 q 582 17 566 9 q 630 67 623 50 l 637 296 q 599 288 616 296 q 540 230 552 250 l 514 187 q 468 266 483 252 q 403 296 419 296 l 399 107 q 426 37 414 50 q 488 9 471 9 l 69 0 q 103 17 87 9 q 151 67 143 50 l 158 221 q 131 289 143 277 q 69 317 86 317 q 102 335 86 328 q 151 386 143 368 l 158 725 q 223 893 192 862 q 395 961 341 961 q 739 943 695 961 q 861 819 844 862 l 878 424 q 906 355 893 368 q 966 328 950 328 q 934 309 950 317 q 885 259 893 277 l 878 107 q 905 37 892 50 q 966 9 949 9 m 637 349 l 637 825 q 554 907 593 907 q 421 885 444 907 l 399 349 q 437 357 420 349 q 495 414 484 394 l 522 457 q 567 379 553 394 q 633 349 616 349 m 623 1025 l 534 1025 l 396 1193 l 623 1025 z "},"Ã":{"ha":1036,"x_min":69,"x_max":966,"o":"m 966 0 l 549 0 q 582 17 566 9 q 630 67 623 50 l 637 296 q 599 288 616 296 q 540 230 552 250 l 514 187 q 468 266 483 252 q 403 296 419 296 l 399 107 q 426 37 414 50 q 488 9 471 9 l 69 0 q 103 17 87 9 q 151 67 143 50 l 158 221 q 131 289 143 277 q 69 317 86 317 q 102 335 86 328 q 151 386 143 368 l 158 725 q 223 893 192 862 q 395 961 341 961 q 739 943 695 961 q 861 819 844 862 l 878 424 q 906 355 893 368 q 966 328 950 328 q 934 309 950 317 q 885 259 893 277 l 878 107 q 905 37 892 50 q 966 9 949 9 m 637 349 l 637 825 q 554 907 593 907 q 421 885 444 907 l 399 349 q 437 357 420 349 q 495 414 484 394 l 522 457 q 567 379 553 394 q 633 349 616 349 m 746 1202 l 652 1032 l 390 1025 l 385 1194 l 646 1202 z "},"Õ":{"ha":1036,"x_min":69,"x_max":966,"o":"m 966 317 q 934 309 950 317 q 883 252 891 273 q 858 129 875 165 q 737 18 780 35 l 395 0 q 226 64 256 35 q 161 203 161 165 q 132 288 145 274 q 69 317 85 317 q 102 335 86 328 q 151 386 143 368 l 158 725 q 223 894 192 863 q 395 961 342 961 q 738 943 694 961 q 861 819 844 863 l 878 425 q 906 356 893 369 q 966 328 950 328 m 637 136 l 637 825 q 554 907 592 907 q 420 885 442 907 l 399 136 q 482 54 441 54 q 616 77 595 54 m 747 1202 l 653 1032 l 392 1025 l 386 1194 l 647 1202 z "},"Œ":{"ha":1378,"x_min":69,"x_max":1295,"o":"m 637 136 l 637 825 q 554 907 592 907 q 420 885 442 907 l 399 136 q 482 54 441 54 q 616 77 595 54 m 1284 -87 q 1277 -55 1284 -71 q 1227 -7 1244 -14 l 395 0 q 226 64 256 35 q 161 203 161 165 q 132 288 145 274 q 69 317 85 317 q 102 335 86 328 q 151 386 143 368 l 158 725 q 223 894 192 863 q 395 961 342 961 q 1215 968 1197 961 q 1265 1016 1258 1000 l 1282 1048 l 1271 675 q 1173 833 1208 801 q 1014 907 1056 907 l 878 349 q 917 357 899 349 q 975 415 964 395 l 1002 457 q 1125 326 1079 339 q 1045 269 1076 304 l 993 187 q 948 265 964 250 q 882 296 899 296 l 878 54 q 1024 69 986 54 q 1161 169 1131 135 q 1256 321 1239 280 l 1295 401 l 1284 -87 z "},"–":{"ha":966,"x_min":35,"x_max":932,"o":"m 932 476 q 854 430 887 464 l 800 346 q 764 415 776 402 q 705 443 722 443 q 651 421 662 431 q 624 376 627 388 q 333 400 340 388 q 291 437 304 431 q 230 435 245 443 q 181 385 191 402 l 158 346 q 35 476 79 464 q 115 534 83 498 l 167 615 q 261 518 230 518 q 315 539 304 530 q 343 585 340 572 q 634 561 627 572 q 676 524 663 530 q 763 545 737 518 l 808 615 q 932 485 883 498 z "},"—":{"ha":1161,"x_min":35,"x_max":1126,"o":"m 1126 476 q 1048 430 1082 464 l 994 346 q 958 415 970 402 q 900 443 916 443 q 846 421 857 431 q 818 376 821 388 q 333 400 340 388 q 291 437 304 431 q 230 435 245 443 q 181 385 191 402 l 158 346 q 35 476 79 464 q 115 534 83 498 l 167 615 q 261 518 230 518 q 315 539 304 530 q 343 585 340 572 q 829 561 822 572 q 870 524 857 530 q 957 545 932 518 l 1003 615 q 1126 485 1078 498 z "},"“":{"ha":575,"x_min":35,"x_max":541,"o":"m 272 804 q 237 784 254 796 q 179 720 191 740 l 153 675 q 35 804 79 789 q 125 896 85 842 l 208 1032 q 227 886 219 911 q 272 812 258 827 m 541 804 q 506 784 523 796 q 447 720 458 740 l 421 675 l 302 812 q 461 1032 434 950 q 483 946 478 981 q 514 844 503 861 l 541 804 z "},"”":{"ha":575,"x_min":35,"x_max":541,"o":"m 272 895 q 181 811 222 865 l 98 675 q 80 821 87 796 q 35 895 50 880 q 102 950 71 918 l 154 1032 l 272 895 m 541 895 q 449 811 490 865 l 367 675 q 348 821 356 796 q 302 895 317 880 q 337 923 320 911 q 396 987 385 967 l 422 1032 q 541 903 496 918 z "},"‘":{"ha":307,"x_min":35,"x_max":272,"o":"m 272 804 q 237 784 254 796 q 179 720 191 740 l 153 675 q 35 804 79 789 q 125 896 85 842 l 208 1032 q 227 886 219 911 q 272 812 258 827 z "},"’":{"ha":307,"x_min":35,"x_max":272,"o":"m 272 895 q 181 811 222 865 l 98 675 q 80 821 87 796 q 35 895 50 880 q 102 950 71 918 l 154 1032 l 272 895 z "},"Ÿ":{"ha":983,"x_min":49,"x_max":935,"o":"m 935 633 q 846 615 891 631 q 678 526 716 554 l 611 107 q 638 37 626 50 q 700 9 683 9 l 283 0 q 316 17 300 9 q 365 67 357 50 l 372 471 q 206 587 248 566 q 49 633 83 632 q 81 651 65 644 q 130 702 122 684 l 138 854 q 109 926 122 913 q 49 951 65 951 l 464 961 q 432 945 448 951 q 383 896 391 913 l 375 545 q 436 490 420 505 q 492 422 480 439 q 608 545 579 521 q 601 896 608 878 q 551 945 567 939 l 519 961 l 935 951 q 874 926 887 939 q 846 854 846 878 q 853 702 846 720 q 903 651 887 659 l 935 633 m 478 1108 q 397 1060 429 1095 l 346 978 q 222 1108 267 1096 q 300 1163 267 1129 l 354 1247 q 478 1117 429 1131 m 762 1108 q 682 1060 714 1095 l 631 978 q 507 1108 552 1096 q 585 1163 552 1129 l 639 1247 q 762 1117 714 1131 z "},"€":{"ha":654,"x_min":56,"x_max":578,"o":"m 568 262 q 564 279 568 270 q 527 312 540 307 l 279 318 q 160 364 182 342 q 113 481 113 446 q 106 595 113 582 q 74 630 83 626 l 56 644 q 92 661 83 652 q 113 715 113 696 q 125 863 113 833 q 213 949 182 937 l 489 961 q 543 981 533 972 q 562 1015 562 1008 l 572 750 q 521 822 545 792 q 420 899 446 890 l 336 908 q 281 851 281 880 l 427 750 l 281 693 l 427 589 l 281 532 q 295 384 281 397 q 398 384 364 371 q 524 488 496 448 l 578 583 l 568 262 z "},"‹":{"ha":239,"x_min":35,"x_max":204,"o":"m 204 294 l 35 390 l 204 667 l 143 481 l 204 294 z "},"›":{"ha":239,"x_min":35,"x_max":204,"o":"m 204 390 l 35 294 l 96 481 l 35 667 l 204 390 z "},"‡":{"ha":966,"x_min":35,"x_max":932,"o":"m 932 176 q 854 130 887 164 l 800 46 q 764 115 776 102 q 705 143 722 143 q 651 121 662 131 q 624 77 627 88 l 587 40 q 543 13 552 23 q 521 -41 521 -25 q 549 -100 536 -87 q 618 -136 597 -131 q 534 -190 568 -157 l 479 -268 q 430 -188 447 -203 q 349 -144 372 -151 q 419 -99 393 -125 q 440 -12 446 -25 q 403 30 415 22 l 379 77 q 333 100 340 88 q 291 137 304 131 q 230 136 245 143 q 181 85 191 102 l 158 46 q 35 176 79 164 q 79 204 59 191 q 142 272 131 251 l 167 315 q 261 218 230 218 q 315 239 304 230 q 343 285 340 273 l 379 533 q 333 556 340 545 q 291 594 304 588 q 230 593 245 600 q 181 541 191 559 l 158 503 q 35 633 79 621 q 79 661 59 648 q 142 729 131 708 l 167 772 q 261 675 230 675 q 315 696 304 687 q 343 742 340 730 l 379 778 q 425 806 415 795 q 446 860 446 844 q 349 954 393 943 q 430 1005 395 974 l 488 1086 q 618 962 568 975 q 548 918 576 943 q 527 830 521 844 q 564 788 552 795 l 587 742 q 634 718 627 730 q 676 681 663 687 q 763 702 737 675 l 808 772 q 932 642 883 655 q 854 587 887 621 l 800 503 q 764 572 776 559 q 705 600 722 600 q 651 578 662 588 q 624 533 627 545 l 587 285 q 634 261 627 273 q 676 224 663 230 q 763 245 737 218 l 808 315 q 932 184 883 198 z "},"„":{"ha":575,"x_min":35,"x_max":541,"o":"m 272 132 q 181 48 222 102 l 98 -87 q 80 59 87 34 q 35 132 50 117 q 102 188 71 156 l 154 269 l 272 132 m 541 132 q 449 48 490 102 l 367 -87 q 348 59 356 34 q 302 132 317 117 q 337 160 320 149 q 396 224 385 204 l 422 269 q 541 140 496 155 z "},"‰":{"ha":2074,"x_min":35,"x_max":2039,"o":"m 653 633 q 635 629 645 633 q 602 595 608 608 l 596 485 q 551 367 572 389 q 431 318 468 318 q 190 331 220 318 q 104 418 116 388 l 92 562 q 71 617 79 608 q 35 633 43 633 q 53 648 43 644 q 85 683 79 669 l 92 796 q 134 909 113 886 q 257 961 216 961 q 502 947 471 961 q 586 856 575 886 l 596 715 q 617 661 608 669 q 653 644 645 644 m 921 961 l 574 0 l 859 961 m 428 437 l 428 842 q 368 908 399 908 q 274 890 289 908 l 260 437 q 319 371 291 371 q 412 389 397 371 m 1400 315 q 1382 311 1392 315 q 1349 277 1354 290 l 1343 167 q 1298 48 1319 71 q 1178 0 1215 0 q 937 13 968 0 q 851 100 863 70 l 839 244 q 818 299 827 290 q 782 315 790 315 q 800 330 790 326 q 833 365 827 351 l 839 478 q 881 591 860 568 q 1004 643 964 643 q 1249 629 1219 643 q 1332 538 1322 568 l 1343 397 q 1364 342 1355 351 q 1400 326 1392 326 m 1175 119 l 1175 524 q 1116 590 1146 590 q 1022 572 1036 590 l 1007 119 q 1067 53 1038 53 q 1160 71 1144 53 m 2039 315 q 2021 311 2030 315 q 1987 277 1993 290 l 1982 167 q 1937 48 1958 71 q 1817 0 1854 0 q 1576 13 1607 0 q 1490 100 1502 70 l 1478 244 q 1457 299 1466 290 q 1421 315 1429 315 q 1439 330 1429 326 q 1472 365 1466 351 l 1478 478 q 1520 591 1499 568 q 1643 643 1603 643 q 1888 629 1858 643 q 1971 538 1961 568 l 1982 397 q 2003 342 1994 351 q 2039 326 2031 326 m 1814 119 l 1814 524 q 1754 590 1785 590 q 1660 572 1675 590 l 1646 119 q 1706 53 1677 53 q 1799 71 1783 53 z "},"Â":{"ha":1036,"x_min":69,"x_max":966,"o":"m 966 0 l 549 0 q 582 17 566 9 q 630 67 623 50 l 637 296 q 599 288 616 296 q 540 230 552 250 l 514 187 q 468 266 483 252 q 403 296 419 296 l 399 107 q 426 37 414 50 q 488 9 471 9 l 69 0 q 103 17 87 9 q 151 67 143 50 l 158 221 q 131 289 143 277 q 69 317 86 317 q 102 335 86 328 q 151 386 143 368 l 158 725 q 223 893 192 862 q 395 961 341 961 q 739 943 695 961 q 861 819 844 862 l 878 424 q 906 355 893 368 q 966 328 950 328 q 934 309 950 317 q 885 259 893 277 l 878 107 q 905 37 892 50 q 966 9 949 9 m 637 349 l 637 825 q 554 907 593 907 q 421 885 444 907 l 399 349 q 437 357 420 349 q 495 414 484 394 l 522 457 q 567 379 553 394 q 633 349 616 349 m 703 1025 l 610 1025 l 427 1025 l 428 1193 l 703 1025 z "},"Ê":{"ha":913,"x_min":83,"x_max":829,"o":"m 819 -87 q 812 -55 819 -71 q 762 -7 779 -14 l 83 0 q 116 17 100 9 q 165 67 157 50 l 172 220 q 144 289 157 276 q 83 317 100 317 q 115 335 99 328 q 164 385 156 367 l 172 854 q 144 926 157 913 q 83 951 100 951 l 710 961 q 780 987 767 975 q 807 1048 807 1031 l 817 675 q 769 759 795 718 q 632 886 673 866 l 412 907 l 416 349 q 484 380 469 366 q 528 457 522 435 q 582 373 550 406 l 660 318 q 536 187 549 234 q 510 230 522 210 q 451 288 468 279 l 412 296 l 481 54 q 631 110 597 84 q 750 241 726 203 q 818 401 808 362 l 829 -87 m 625 1025 l 532 1025 l 349 1025 l 350 1193 l 625 1025 z "},"Á":{"ha":1036,"x_min":69,"x_max":966,"o":"m 966 0 l 549 0 q 582 17 566 9 q 630 67 623 50 l 637 296 q 599 288 616 296 q 540 230 552 250 l 514 187 q 468 266 483 252 q 403 296 419 296 l 399 107 q 426 37 414 50 q 488 9 471 9 l 69 0 q 103 17 87 9 q 151 67 143 50 l 158 221 q 131 289 143 277 q 69 317 86 317 q 102 335 86 328 q 151 386 143 368 l 158 725 q 223 893 192 862 q 395 961 341 961 q 739 943 695 961 q 861 819 844 862 l 878 424 q 906 355 893 368 q 966 328 950 328 q 934 309 950 317 q 885 259 893 277 l 878 107 q 905 37 892 50 q 966 9 949 9 m 637 349 l 637 825 q 554 907 593 907 q 421 885 444 907 l 399 349 q 437 357 420 349 q 495 414 484 394 l 522 457 q 567 379 553 394 q 633 349 616 349 m 639 1181 l 500 1025 l 468 1193 l 639 1181 z "},"Ë":{"ha":913,"x_min":83,"x_max":829,"o":"m 819 -87 q 812 -55 819 -71 q 762 -7 779 -14 l 83 0 q 116 17 100 9 q 165 67 157 50 l 172 220 q 144 289 157 276 q 83 317 100 317 q 115 335 99 328 q 164 385 156 367 l 172 854 q 144 926 157 913 q 83 951 100 951 l 710 961 q 780 987 767 975 q 807 1048 807 1031 l 817 675 q 769 759 795 718 q 632 886 673 866 l 412 907 l 416 349 q 484 380 469 366 q 528 457 522 435 q 582 373 550 406 l 660 318 q 536 187 549 234 q 510 230 522 210 q 451 288 468 279 l 412 296 l 481 54 q 631 110 597 84 q 750 241 726 203 q 818 401 808 362 l 829 -87 m 425 1108 q 345 1060 376 1095 l 293 978 q 170 1108 214 1096 q 248 1163 214 1129 l 301 1247 q 425 1117 376 1131 m 710 1108 q 629 1060 661 1095 l 578 978 q 454 1108 499 1096 q 532 1163 499 1129 l 586 1247 q 710 1117 661 1131 z "},"È":{"ha":913,"x_min":83,"x_max":829,"o":"m 819 -87 q 812 -55 819 -71 q 762 -7 779 -14 l 83 0 q 116 17 100 9 q 165 67 157 50 l 172 220 q 144 289 157 276 q 83 317 100 317 q 115 335 99 328 q 164 385 156 367 l 172 854 q 144 926 157 913 q 83 951 100 951 l 710 961 q 780 987 767 975 q 807 1048 807 1031 l 817 675 q 769 759 795 718 q 632 886 673 866 l 412 907 l 416 349 q 484 380 469 366 q 528 457 522 435 q 582 373 550 406 l 660 318 q 536 187 549 234 q 510 230 522 210 q 451 288 468 279 l 412 296 l 481 54 q 631 110 597 84 q 750 241 726 203 q 818 401 808 362 l 829 -87 m 553 1025 l 465 1025 l 326 1193 l 553 1025 z "},"Í":{"ha":557,"x_min":69,"x_max":488,"o":"m 488 0 l 69 0 q 103 17 87 9 q 151 67 143 50 l 158 854 q 130 926 142 913 q 69 951 85 951 l 488 961 q 455 945 471 951 q 406 895 414 913 l 399 107 q 426 36 414 49 q 488 9 471 9 m 400 1181 l 261 1025 l 229 1193 l 400 1181 z "},"Î":{"ha":557,"x_min":69,"x_max":488,"o":"m 488 0 l 69 0 q 103 17 87 9 q 151 67 143 50 l 158 854 q 130 926 142 913 q 69 951 85 951 l 488 961 q 455 945 471 951 q 406 895 414 913 l 399 107 q 426 36 414 49 q 488 9 471 9 m 464 1025 l 371 1025 l 187 1025 l 189 1193 l 464 1025 z "},"Ï":{"ha":557,"x_min":8,"x_max":549,"o":"m 488 0 l 69 0 q 103 17 87 9 q 151 67 143 50 l 158 854 q 130 926 142 913 q 69 951 85 951 l 488 961 q 455 945 471 951 q 406 895 414 913 l 399 107 q 426 36 414 49 q 488 9 471 9 m 264 1108 q 184 1060 216 1095 l 132 978 q 8 1108 53 1096 q 86 1163 53 1129 l 140 1247 q 264 1117 216 1131 m 549 1108 q 469 1060 500 1095 l 416 978 q 293 1108 338 1096 q 371 1163 338 1129 l 425 1247 q 549 1117 500 1131 z "},"Ì":{"ha":557,"x_min":69,"x_max":488,"o":"m 488 0 l 69 0 q 103 17 87 9 q 151 67 143 50 l 158 854 q 130 926 142 913 q 69 951 85 951 l 488 961 q 455 945 471 951 q 406 895 414 913 l 399 107 q 426 36 414 49 q 488 9 471 9 m 383 1025 l 296 1025 l 157 1193 l 383 1025 z "},"Ó":{"ha":1036,"x_min":69,"x_max":966,"o":"m 966 317 q 934 309 950 317 q 883 252 891 273 q 858 129 875 165 q 737 18 780 35 l 395 0 q 226 64 256 35 q 161 203 161 165 q 132 288 145 274 q 69 317 85 317 q 102 335 86 328 q 151 386 143 368 l 158 725 q 223 894 192 863 q 395 961 342 961 q 738 943 694 961 q 861 819 844 863 l 878 425 q 906 356 893 369 q 966 328 950 328 m 637 136 l 637 825 q 554 907 592 907 q 420 885 442 907 l 399 136 q 482 54 441 54 q 616 77 595 54 m 640 1181 l 501 1025 l 469 1193 l 640 1181 z "},"Ô":{"ha":1036,"x_min":69,"x_max":966,"o":"m 966 317 q 934 309 950 317 q 883 252 891 273 q 858 129 875 165 q 737 18 780 35 l 395 0 q 226 64 256 35 q 161 203 161 165 q 132 288 145 274 q 69 317 85 317 q 102 335 86 328 q 151 386 143 368 l 158 725 q 223 894 192 863 q 395 961 342 961 q 738 943 694 961 q 861 819 844 863 l 878 425 q 906 356 893 369 q 966 328 950 328 m 637 136 l 637 825 q 554 907 592 907 q 420 885 442 907 l 399 136 q 482 54 441 54 q 616 77 595 54 m 704 1025 l 611 1025 l 428 1025 l 429 1193 l 704 1025 z "},"Ò":{"ha":1036,"x_min":69,"x_max":966,"o":"m 966 317 q 934 309 950 317 q 883 252 891 273 q 858 129 875 165 q 737 18 780 35 l 395 0 q 226 64 256 35 q 161 203 161 165 q 132 288 145 274 q 69 317 85 317 q 102 335 86 328 q 151 386 143 368 l 158 725 q 223 894 192 863 q 395 961 342 961 q 738 943 694 961 q 861 819 844 863 l 878 425 q 906 356 893 369 q 966 328 950 328 m 637 136 l 637 825 q 554 907 592 907 q 420 885 442 907 l 399 136 q 482 54 441 54 q 616 77 595 54 m 623 1025 l 534 1025 l 396 1193 l 623 1025 z "},"Ú":{"ha":1036,"x_min":69,"x_max":966,"o":"m 966 317 q 935 310 951 317 q 883 253 892 274 q 858 129 875 165 q 737 18 780 35 l 395 0 q 226 64 256 35 q 161 203 161 165 q 132 288 145 274 q 69 317 85 317 q 102 335 86 328 q 151 386 143 368 l 158 854 q 130 926 142 913 q 69 951 85 951 l 488 961 q 455 945 471 951 q 406 895 414 913 l 399 136 q 482 54 441 54 q 616 77 595 54 l 637 854 q 609 925 622 913 q 549 951 565 951 l 966 961 q 935 945 950 951 q 885 896 893 913 l 878 424 q 906 355 893 368 q 966 328 950 328 m 639 1181 l 500 1025 l 468 1193 l 639 1181 z "},"Û":{"ha":1036,"x_min":69,"x_max":966,"o":"m 966 317 q 935 310 951 317 q 883 253 892 274 q 858 129 875 165 q 737 18 780 35 l 395 0 q 226 64 256 35 q 161 203 161 165 q 132 288 145 274 q 69 317 85 317 q 102 335 86 328 q 151 386 143 368 l 158 854 q 130 926 142 913 q 69 951 85 951 l 488 961 q 455 945 471 951 q 406 895 414 913 l 399 136 q 482 54 441 54 q 616 77 595 54 l 637 854 q 609 925 622 913 q 549 951 565 951 l 966 961 q 935 945 950 951 q 885 896 893 913 l 878 424 q 906 355 893 368 q 966 328 950 328 m 703 1025 l 610 1025 l 427 1025 l 428 1193 l 703 1025 z "},"Ù":{"ha":1036,"x_min":69,"x_max":966,"o":"m 966 317 q 935 310 951 317 q 883 253 892 274 q 858 129 875 165 q 737 18 780 35 l 395 0 q 226 64 256 35 q 161 203 161 165 q 132 288 145 274 q 69 317 85 317 q 102 335 86 328 q 151 386 143 368 l 158 854 q 130 926 142 913 q 69 951 85 951 l 488 961 q 455 945 471 951 q 406 895 414 913 l 399 136 q 482 54 441 54 q 616 77 595 54 l 637 854 q 609 925 622 913 q 549 951 565 951 l 966 961 q 935 945 950 951 q 885 896 893 913 l 878 424 q 906 355 893 368 q 966 328 950 328 m 623 1025 l 534 1025 l 396 1193 l 623 1025 z "},"ˆ":{"ha":439,"x_min":35,"x_max":404,"o":"m 404 1025 l 311 1025 l 127 1025 l 129 1193 l 404 1025 z "},"˜":{"ha":525,"x_min":35,"x_max":490,"o":"m 490 1202 l 396 1032 l 135 1025 l 129 1194 l 390 1202 z "},"¯":{"ha":439,"x_min":35,"x_max":404,"o":"m 404 1050 l 35 1050 l 404 1165 z "},"˘":{"ha":433,"x_min":35,"x_max":399,"o":"m 399 1178 q 370 1096 390 1135 l 122 1025 l 123 1178 q 216 1132 186 1132 q 310 1178 294 1156 z "},"˙":{"ha":325,"x_min":35,"x_max":290,"o":"m 290 1108 q 210 1060 242 1095 l 158 978 q 35 1108 79 1096 q 113 1163 79 1129 l 167 1247 q 290 1117 242 1131 z "},"˚":{"ha":317,"x_min":35,"x_max":282,"o":"m 171 1109 q 167 1126 171 1120 q 150 1126 154 1132 q 150 1093 146 1097 q 166 1093 161 1088 m 282 1109 q 273 1073 282 1090 q 207 1023 229 1030 q 110 1023 132 1015 q 44 1073 54 1055 q 44 1146 35 1129 q 109 1197 86 1190 q 207 1197 184 1204 q 273 1146 263 1164 z "},"¸":{"ha":286,"x_min":35,"x_max":252,"o":"m 252 -135 q 230 -194 252 -170 q 106 -252 144 -246 l 61 -186 q 91 -150 90 -159 q 78 -114 86 -121 l 180 12 q 194 -57 177 -50 q 244 -102 237 -87 z "},"˝":{"ha":500,"x_min":35,"x_max":465,"o":"m 261 1181 l 122 1025 l 90 1193 l 261 1181 m 465 1181 l 326 1025 l 294 1193 l 465 1181 z "},"˛":{"ha":261,"x_min":35,"x_max":227,"o":"m 227 -257 q 164 -251 198 -257 q 54 -192 73 -215 q 70 -67 35 -93 l 164 12 l 216 -109 q 194 -144 193 -132 q 227 -186 210 -179 z "},"ˇ":{"ha":439,"x_min":35,"x_max":404,"o":"m 404 1193 l 310 1025 l 35 1193 l 220 1132 l 404 1193 z "},")":{"ha":492,"x_min":35,"x_max":457,"o":"m 457 633 q 425 626 441 633 q 376 575 384 593 l 368 110 q 316 -36 341 -11 q 175 -87 219 -87 l 35 -33 q 189 -11 166 -33 l 212 914 q 127 996 168 996 l 35 1050 q 256 1037 220 1050 q 355 936 341 972 l 368 741 q 396 671 384 684 q 457 644 441 644 z "},"}":{"ha":492,"x_min":35,"x_max":457,"o":"m 457 633 q 425 626 441 633 q 376 575 384 593 l 368 110 q 316 -36 341 -11 q 175 -87 219 -87 l 35 -33 q 189 -11 166 -33 l 212 464 q 244 585 230 564 q 307 639 292 632 q 244 693 258 672 q 212 814 212 774 q 190 973 212 951 l 35 996 l 175 1050 q 316 998 292 1023 q 368 852 368 899 q 376 702 368 720 q 425 651 409 659 l 457 633 z "},"]":{"ha":519,"x_min":35,"x_max":457,"o":"m 457 -87 l 35 -87 l 212 -33 l 35 996 l 457 1050 q 425 1034 441 1040 q 376 984 384 1002 l 368 741 q 397 671 385 684 q 457 644 441 644 q 425 626 441 633 q 376 575 384 593 l 368 20 q 396 -52 383 -39 q 457 -78 440 -78 z "},"\\":{"ha":547,"x_min":35,"x_max":513,"o":"m 513 -87 l 447 -87 l 98 1050 z "},"⁄":{"ha":482,"x_min":35,"x_max":447,"o":"m 447 961 l 100 0 l 385 961 z "},".":{"ha":325,"x_min":35,"x_max":290,"o":"m 290 131 q 210 82 242 117 l 158 0 q 35 131 79 118 q 113 185 79 151 l 167 269 q 290 139 242 153 z "},"·":{"ha":325,"x_min":35,"x_max":290,"o":"m 290 478 q 210 429 242 465 l 158 347 q 35 478 79 465 q 113 532 79 498 l 167 616 q 290 486 242 500 z "},",":{"ha":307,"x_min":35,"x_max":272,"o":"m 272 132 q 181 48 222 102 l 98 -87 q 80 59 87 34 q 35 132 50 117 q 102 188 71 156 l 154 269 l 272 132 z "},"»":{"ha":443,"x_min":35,"x_max":408,"o":"m 204 390 l 35 294 l 96 481 l 35 667 l 204 390 m 408 390 l 239 294 l 300 481 l 239 667 l 408 390 z "},"‚":{"ha":307,"x_min":35,"x_max":272,"o":"m 272 132 q 181 48 222 102 l 98 -87 q 80 59 87 34 q 35 132 50 117 q 102 188 71 156 l 154 269 l 272 132 z "},"Š":{"ha":940,"x_min":56,"x_max":940,"o":"m 940 317 q 908 310 924 317 q 857 253 865 274 q 832 130 848 166 q 711 18 754 36 l 243 0 q 173 -26 186 -14 q 146 -87 146 -71 l 136 401 q 174 321 157 362 q 270 169 239 203 q 407 69 368 84 l 511 54 q 586 79 571 66 q 618 160 618 132 q 599 273 618 219 q 460 475 510 430 q 211 610 285 589 l 56 644 q 118 674 105 660 q 147 758 147 731 q 211 897 180 868 q 380 961 328 961 q 723 968 705 961 q 773 1016 766 1000 l 790 1048 l 779 675 q 682 833 717 801 q 522 907 564 907 q 444 900 463 907 q 386 848 395 867 l 378 789 q 459 571 421 621 q 666 400 604 433 q 940 328 868 330 m 684 1193 l 589 1025 l 314 1193 l 498 1132 l 684 1193 z "},"a":{"ha":1036,"x_min":69,"x_max":966,"o":"m 966 0 l 549 0 q 582 17 566 9 q 630 67 623 50 l 637 296 q 599 288 616 296 q 540 230 552 250 l 514 187 q 468 266 483 252 q 403 296 419 296 l 399 107 q 426 37 414 50 q 488 9 471 9 l 69 0 q 103 17 87 9 q 151 67 143 50 l 158 221 q 131 289 143 277 q 69 317 86 317 q 102 335 86 328 q 151 386 143 368 l 158 725 q 223 893 192 862 q 395 961 341 961 q 739 943 695 961 q 861 819 844 862 l 878 424 q 906 355 893 368 q 966 328 950 328 q 934 309 950 317 q 885 259 893 277 l 878 107 q 905 37 892 50 q 966 9 949 9 m 637 349 l 637 825 q 554 907 593 907 q 421 885 444 907 l 399 349 q 437 357 420 349 q 495 414 484 394 l 522 457 q 567 379 553 394 q 633 349 616 349 z "},"b":{"ha":956,"x_min":69,"x_max":872,"o":"m 872 236 q 856 142 872 186 q 733 18 777 36 l 69 0 q 103 17 87 9 q 151 67 143 50 l 158 854 q 130 926 142 913 q 69 951 85 951 l 614 961 q 783 896 752 926 q 850 725 850 778 q 717 608 782 632 q 647 469 613 498 q 794 367 755 389 l 872 236 m 618 764 l 618 825 q 534 907 571 907 q 411 811 399 858 q 488 643 463 680 q 570 616 556 595 q 612 710 606 684 m 639 136 l 639 231 q 587 403 610 363 q 481 549 508 515 q 399 673 410 644 l 555 54 q 639 136 639 94 z "},"c":{"ha":878,"x_min":56,"x_max":802,"o":"m 791 -87 q 784 -55 791 -71 q 734 -7 751 -14 l 380 0 q 212 64 242 35 q 147 203 147 165 q 118 288 131 274 q 56 317 72 317 q 87 335 72 328 q 137 385 129 368 l 144 725 q 210 894 178 863 q 382 961 328 961 q 722 968 704 961 q 772 1016 765 1000 l 789 1048 l 778 675 q 680 833 715 801 q 521 907 563 907 q 407 886 430 907 l 385 136 q 468 54 428 54 q 638 139 593 96 q 790 401 766 313 l 802 -87 z "},"d":{"ha":1003,"x_min":69,"x_max":878,"o":"m 878 236 q 860 140 878 183 q 736 17 780 35 l 69 0 q 103 17 87 9 q 151 68 144 50 l 158 854 q 130 926 142 914 q 69 951 85 951 l 642 961 q 813 894 782 926 q 878 725 878 776 m 637 136 l 637 825 q 553 907 593 907 l 399 54 q 616 76 594 54 z "},"e":{"ha":913,"x_min":83,"x_max":829,"o":"m 819 -87 q 812 -55 819 -71 q 762 -7 779 -14 l 83 0 q 116 17 100 9 q 165 67 157 50 l 172 220 q 144 289 157 276 q 83 317 100 317 q 115 335 99 328 q 164 385 156 367 l 172 854 q 144 926 157 913 q 83 951 100 951 l 710 961 q 780 987 767 975 q 807 1048 807 1031 l 817 675 q 769 759 795 718 q 632 886 673 866 l 412 907 l 416 349 q 484 380 469 366 q 528 457 522 435 q 582 373 550 406 l 660 318 q 536 187 549 234 q 510 230 522 210 q 451 288 468 279 l 412 296 l 481 54 q 631 110 597 84 q 750 241 726 203 q 818 401 808 362 l 829 -87 z "},"f":{"ha":844,"x_min":83,"x_max":817,"o":"m 817 675 l 806 675 q 708 833 743 801 q 549 907 591 907 l 412 349 q 451 357 434 349 q 510 415 498 395 l 536 457 q 660 326 614 339 q 580 270 612 304 l 528 187 q 483 265 498 250 q 416 296 434 296 l 412 107 q 440 36 428 49 q 501 9 485 9 l 83 0 q 117 17 101 9 q 165 68 158 50 l 172 220 q 144 289 157 276 q 83 317 100 317 q 115 335 100 328 q 164 385 157 368 l 172 854 q 144 926 157 913 q 83 951 100 951 l 710 961 q 780 987 767 975 q 807 1048 807 1031 l 817 675 z "},"g":{"ha":993,"x_min":62,"x_max":958,"o":"m 958 0 l 387 0 q 216 67 247 35 q 151 236 151 185 q 144 575 151 558 q 95 626 111 618 l 62 644 q 124 673 111 659 q 154 758 154 730 q 219 897 188 869 q 387 961 336 961 q 730 968 712 961 q 780 1016 773 1000 l 798 1048 l 786 675 q 688 833 724 801 q 529 907 571 907 q 413 884 434 907 l 392 136 q 475 54 435 54 q 610 76 589 54 l 632 536 q 603 608 616 596 q 543 633 559 633 l 958 643 q 925 627 941 633 q 877 576 884 594 l 869 107 q 897 37 884 50 q 958 9 941 9 z "},"h":{"ha":1064,"x_min":83,"x_max":981,"o":"m 981 0 l 562 0 q 596 17 580 9 q 644 68 637 50 l 652 612 q 613 604 630 612 q 554 547 566 567 l 528 504 q 482 583 497 568 q 416 612 433 612 l 412 107 q 440 36 428 49 q 501 9 485 9 l 83 0 q 116 17 100 9 q 165 67 157 50 l 172 536 q 144 606 157 593 q 83 633 100 633 q 116 652 100 644 q 164 703 157 685 l 172 854 q 144 926 157 913 q 83 951 100 951 l 501 961 q 469 945 485 951 q 420 896 428 913 l 412 665 q 451 673 434 665 q 509 731 498 711 l 536 774 q 581 696 566 711 q 647 665 630 665 l 652 854 q 623 926 636 913 q 562 951 578 951 l 981 961 q 948 945 964 951 q 900 896 907 913 l 892 741 q 919 672 907 685 q 981 644 964 644 q 948 626 964 633 q 900 575 907 593 l 892 107 q 919 37 907 50 q 981 9 964 9 z "},"i":{"ha":557,"x_min":69,"x_max":488,"o":"m 488 0 l 69 0 q 103 17 87 9 q 151 67 143 50 l 158 854 q 130 926 142 913 q 69 951 85 951 l 488 961 q 455 945 471 951 q 406 895 414 913 l 399 107 q 426 36 414 49 q 488 9 471 9 z "},"ı":{"ha":557,"x_min":69,"x_max":488,"o":"m 488 0 l 69 0 q 103 17 87 9 q 151 67 143 50 l 158 854 q 130 926 142 913 q 69 951 85 951 l 488 961 q 455 945 471 951 q 406 895 414 913 l 399 107 q 426 36 414 49 q 488 9 471 9 z "},"j":{"ha":843,"x_min":28,"x_max":774,"o":"m 774 951 q 741 945 757 951 q 692 895 700 913 l 685 236 q 620 68 651 100 q 449 0 502 0 q 96 -7 114 0 q 44 -55 52 -39 l 28 -87 l 39 401 q 191 139 145 182 q 361 54 327 54 q 444 136 444 94 q 436 897 444 878 q 387 945 402 939 l 355 961 l 774 951 z "},"k":{"ha":996,"x_min":69,"x_max":961,"o":"m 961 0 l 550 0 q 584 17 568 9 q 632 68 625 50 l 639 231 q 590 398 612 357 q 472 559 507 518 q 421 437 431 474 q 399 271 399 317 q 406 67 399 85 q 455 16 439 23 l 488 0 l 69 9 q 131 37 119 24 q 158 107 158 85 q 150 896 158 878 q 101 945 117 939 l 69 961 l 488 951 q 426 925 439 938 q 399 854 399 877 q 441 627 414 581 q 582 801 539 760 q 768 941 719 913 l 867 675 q 836 722 853 703 q 729 756 764 759 q 582 692 620 722 q 577 534 538 574 q 765 384 712 417 l 872 107 q 900 36 888 49 q 961 9 945 9 z "},"l":{"ha":843,"x_min":69,"x_max":815,"o":"m 806 -87 q 799 -55 806 -71 q 747 -7 765 -14 l 69 0 q 103 17 87 9 q 151 67 143 50 l 158 854 q 130 926 142 913 q 69 951 85 951 l 488 961 q 455 945 471 951 q 406 895 414 913 l 399 54 q 545 69 507 54 q 682 169 652 135 q 777 321 760 280 l 815 401 l 806 -87 z "},"m":{"ha":1231,"x_min":69,"x_max":1161,"o":"m 1161 0 l 743 0 q 776 17 760 9 q 825 67 817 50 l 832 872 q 693 753 717 793 q 646 554 646 612 q 654 405 646 423 q 707 345 690 356 l 743 319 q 664 271 680 288 q 619 189 625 213 q 568 271 601 235 l 488 328 q 552 369 538 354 q 585 443 585 422 q 537 753 585 671 l 399 107 q 426 36 414 49 q 488 9 471 9 l 69 0 q 103 17 87 9 q 151 67 143 50 l 158 854 q 130 926 142 913 q 69 951 85 951 l 211 961 q 472 898 420 929 q 615 714 596 774 q 1021 961 861 961 l 1161 951 q 1101 926 1114 939 q 1072 854 1072 878 q 1080 67 1072 85 q 1128 17 1112 24 l 1161 0 z "},"n":{"ha":1038,"x_min":69,"x_max":968,"o":"m 968 0 l 550 0 q 583 16 567 9 q 631 67 624 49 l 639 371 q 563 702 597 644 q 399 857 443 836 q 406 67 399 85 q 454 17 438 24 l 488 0 l 69 9 q 131 37 119 24 q 158 107 158 85 q 150 896 158 878 q 101 945 117 939 l 69 961 q 350 936 270 961 q 582 776 545 829 l 639 961 l 968 951 q 907 925 920 938 q 879 854 879 877 q 887 67 879 85 q 936 16 920 23 l 968 0 z "},"o":{"ha":1036,"x_min":69,"x_max":966,"o":"m 966 317 q 934 309 950 317 q 883 252 891 273 q 858 129 875 165 q 737 18 780 35 l 395 0 q 226 64 256 35 q 161 203 161 165 q 132 288 145 274 q 69 317 85 317 q 102 335 86 328 q 151 386 143 368 l 158 725 q 223 894 192 863 q 395 961 342 961 q 738 943 694 961 q 861 819 844 863 l 878 425 q 906 356 893 369 q 966 328 950 328 m 637 136 l 637 825 q 554 907 592 907 q 420 885 442 907 l 399 136 q 482 54 441 54 q 616 77 595 54 z "},"p":{"ha":878,"x_min":69,"x_max":850,"o":"m 850 633 q 726 614 791 633 q 487 464 539 519 l 399 107 q 426 37 414 50 q 488 9 471 9 l 69 0 q 102 16 86 9 q 151 67 143 49 l 158 854 q 130 926 142 914 q 69 951 85 951 l 614 961 q 785 894 754 926 q 850 725 850 776 m 618 758 l 618 825 q 534 907 570 907 l 399 449 q 479 538 455 515 q 573 637 553 610 q 618 758 618 724 z "},"q":{"ha":1036,"x_min":69,"x_max":1000,"o":"m 637 336 l 637 825 q 554 907 592 907 q 420 885 442 907 l 399 336 q 473 387 458 369 q 513 465 509 445 q 537 425 527 446 q 597 356 578 370 m 637 136 l 637 309 q 576 271 590 285 q 545 200 545 222 l 554 54 q 637 136 637 100 m 492 54 l 492 200 q 460 270 474 256 q 399 309 414 303 q 420 77 399 100 l 492 54 m 966 317 q 934 309 950 317 q 883 252 891 273 q 858 129 875 165 q 737 18 780 35 l 545 0 q 551 -55 545 -39 q 595 -100 580 -94 l 757 -107 q 824 -75 809 -90 q 868 1 862 -21 q 922 -83 890 -49 l 1000 -138 q 876 -268 889 -222 q 850 -225 862 -245 q 791 -168 808 -176 l 629 -160 q 533 -120 551 -138 q 492 -22 492 -51 l 395 0 q 226 64 256 35 q 161 203 161 165 q 132 288 145 274 q 69 317 85 317 q 102 335 86 328 q 151 386 143 368 l 158 725 q 223 894 192 863 q 395 961 342 961 q 738 943 694 961 q 861 819 844 863 l 878 425 q 906 356 893 369 q 966 328 950 328 z "},"r":{"ha":982,"x_min":69,"x_max":961,"o":"m 961 0 l 550 0 q 584 17 568 9 q 631 67 624 50 l 639 231 q 587 403 610 363 q 481 549 508 515 q 399 673 410 644 q 406 67 399 85 q 454 17 438 24 l 488 0 l 69 9 q 131 37 119 24 q 158 107 158 85 q 150 896 158 878 q 101 945 117 939 l 69 961 q 709 944 665 961 q 832 821 814 865 l 850 633 q 585 526 653 585 q 716 417 680 443 q 872 326 831 345 q 880 67 872 85 q 929 16 913 23 l 961 0 m 618 764 l 618 825 q 534 907 574 907 q 411 808 399 856 q 490 640 465 677 q 570 616 556 595 q 612 710 606 684 z "},"s":{"ha":940,"x_min":56,"x_max":940,"o":"m 940 317 q 908 310 924 317 q 857 253 865 274 q 832 130 848 166 q 711 18 754 36 l 243 0 q 173 -26 186 -14 q 146 -87 146 -71 l 136 401 q 174 321 157 362 q 270 169 239 203 q 407 69 368 84 l 511 54 q 586 79 571 66 q 618 160 618 132 q 599 273 618 219 q 460 475 510 430 q 211 610 285 589 l 56 644 q 118 674 105 660 q 147 758 147 731 q 211 897 180 868 q 380 961 328 961 q 723 968 705 961 q 773 1016 766 1000 l 790 1048 l 779 675 q 682 833 717 801 q 522 907 564 907 q 444 900 463 907 q 386 848 395 867 l 378 789 q 459 571 421 621 q 666 400 604 433 q 940 328 868 330 z "},"t":{"ha":860,"x_min":14,"x_max":846,"o":"m 639 0 l 221 0 q 254 17 238 9 q 302 67 295 50 l 310 907 q 199 886 241 907 q 62 759 87 801 l 14 675 l 24 1048 q 51 987 38 1000 q 121 961 100 961 q 779 968 761 961 q 829 1016 822 1000 l 846 1048 l 835 675 q 737 833 772 801 q 578 907 620 907 l 550 107 q 577 37 565 50 q 639 9 622 9 z "},"u":{"ha":1036,"x_min":69,"x_max":966,"o":"m 966 317 q 935 310 951 317 q 883 253 892 274 q 858 129 875 165 q 737 18 780 35 l 395 0 q 226 64 256 35 q 161 203 161 165 q 132 288 145 274 q 69 317 85 317 q 102 335 86 328 q 151 386 143 368 l 158 854 q 130 926 142 913 q 69 951 85 951 l 488 961 q 455 945 471 951 q 406 895 414 913 l 399 136 q 482 54 441 54 q 616 77 595 54 l 637 854 q 609 925 622 913 q 549 951 565 951 l 966 961 q 935 945 950 951 q 885 896 893 913 l 878 424 q 906 355 893 368 q 966 328 950 328 z "},"v":{"ha":1008,"x_min":56,"x_max":953,"o":"m 953 317 q 874 303 916 315 q 705 220 747 249 q 558 82 589 121 l 500 0 q 382 156 420 121 q 218 270 261 249 q 56 317 92 315 q 87 335 72 328 q 137 385 129 368 l 144 854 q 116 926 129 913 q 56 951 72 951 l 473 961 q 441 945 457 951 q 392 896 400 913 l 385 231 q 449 172 433 189 q 504 103 494 119 q 559 172 543 155 q 624 231 609 219 q 616 895 624 877 q 567 945 583 938 l 534 961 l 953 951 q 891 925 904 938 q 864 854 864 877 q 872 386 864 404 q 921 335 905 342 l 953 317 z "},"w":{"ha":1203,"x_min":56,"x_max":1147,"o":"m 1147 317 q 1069 303 1111 315 q 898 219 941 248 q 751 81 781 121 l 694 0 q 602 149 614 106 q 509 0 539 28 q 452 81 482 42 q 305 219 347 191 q 134 303 176 291 l 56 328 q 116 354 103 342 q 144 424 144 403 q 136 896 144 878 q 87 945 103 939 l 56 961 l 473 951 q 413 926 426 939 q 385 854 385 878 q 418 202 400 218 q 485 131 470 150 q 533 138 522 113 q 566 253 562 221 l 571 518 q 538 592 553 576 q 473 633 490 629 q 515 660 495 648 q 580 727 568 706 l 606 772 q 650 690 633 707 q 729 642 706 648 q 694 616 711 627 q 641 557 649 575 l 632 315 q 650 194 642 222 q 693 96 680 114 q 750 168 733 150 q 818 231 802 218 q 810 896 818 878 q 761 945 777 939 l 729 961 l 1147 951 q 1087 926 1100 939 q 1059 854 1059 878 q 1066 386 1059 404 q 1115 335 1099 342 l 1147 317 z "},"x":{"ha":1017,"x_min":60,"x_max":957,"o":"m 954 633 q 829 621 885 633 q 636 540 678 568 q 615 431 581 455 q 771 350 726 366 l 868 109 q 895 37 883 50 q 957 9 940 9 l 539 0 q 572 17 556 9 q 621 67 613 50 l 628 355 q 509 441 534 420 q 389 355 418 373 q 396 67 389 85 q 445 17 429 24 l 478 0 l 60 9 q 122 38 111 24 q 149 107 149 86 q 247 351 201 334 q 404 433 372 410 q 375 544 418 515 q 181 622 235 612 l 62 644 q 123 671 111 659 q 151 741 151 720 q 143 896 151 878 q 95 945 111 939 l 62 961 l 478 951 q 417 926 430 939 q 389 854 389 878 q 417 583 404 592 q 473 542 457 554 q 572 564 543 543 l 628 854 q 600 926 612 913 q 539 951 555 951 l 954 961 q 922 945 938 951 q 873 896 881 913 l 865 741 q 893 671 881 684 q 954 644 938 644 z "},"y":{"ha":983,"x_min":49,"x_max":935,"o":"m 935 633 q 846 615 891 631 q 678 526 716 554 l 611 107 q 638 37 626 50 q 700 9 683 9 l 283 0 q 316 17 300 9 q 365 67 357 50 l 372 471 q 206 587 248 566 q 49 633 83 632 q 81 651 65 644 q 130 702 122 684 l 138 854 q 109 926 122 913 q 49 951 65 951 l 464 961 q 432 945 448 951 q 383 896 391 913 l 375 545 q 436 490 420 505 q 492 422 480 439 q 608 545 579 521 q 601 896 608 878 q 551 945 567 939 l 519 961 l 935 951 q 874 926 887 939 q 846 854 846 878 q 853 702 846 720 q 903 651 887 659 l 935 633 z "},"z":{"ha":850,"x_min":97,"x_max":766,"o":"m 757 -87 q 750 -55 757 -71 q 699 -7 717 -14 l 97 0 l 433 907 q 296 886 338 907 q 159 759 184 801 l 111 675 l 121 1048 q 148 987 135 1000 q 218 961 197 961 l 745 949 l 418 54 q 569 110 534 84 q 687 241 663 203 q 755 401 746 362 l 766 -87 z "},"š":{"ha":940,"x_min":56,"x_max":940,"o":"m 940 317 q 908 310 924 317 q 857 253 865 274 q 832 130 848 166 q 711 18 754 36 l 243 0 q 173 -26 186 -14 q 146 -87 146 -71 l 136 401 q 174 321 157 362 q 270 169 239 203 q 407 69 368 84 l 511 54 q 586 79 571 66 q 618 160 618 132 q 599 273 618 219 q 460 475 510 430 q 211 610 285 589 l 56 644 q 118 674 105 660 q 147 758 147 731 q 211 897 180 868 q 380 961 328 961 q 723 968 705 961 q 773 1016 766 1000 l 790 1048 l 779 675 q 682 833 717 801 q 522 907 564 907 q 444 900 463 907 q 386 848 395 867 l 378 789 q 459 571 421 621 q 666 400 604 433 q 940 328 868 330 m 684 1193 l 589 1025 l 314 1193 l 498 1132 l 684 1193 z "},"ý":{"ha":983,"x_min":49,"x_max":935,"o":"m 935 633 q 846 615 891 631 q 678 526 716 554 l 611 107 q 638 37 626 50 q 700 9 683 9 l 283 0 q 316 17 300 9 q 365 67 357 50 l 372 471 q 206 587 248 566 q 49 633 83 632 q 81 651 65 644 q 130 702 122 684 l 138 854 q 109 926 122 913 q 49 951 65 951 l 464 961 q 432 945 448 951 q 383 896 391 913 l 375 545 q 436 490 420 505 q 492 422 480 439 q 608 545 579 521 q 601 896 608 878 q 551 945 567 939 l 519 961 l 935 951 q 874 926 887 939 q 846 854 846 878 q 853 702 846 720 q 903 651 887 659 l 935 633 m 614 1181 l 475 1025 l 443 1193 l 614 1181 z "},"ž":{"ha":850,"x_min":97,"x_max":766,"o":"m 757 -87 q 750 -55 757 -71 q 699 -7 717 -14 l 97 0 l 433 907 q 296 886 338 907 q 159 759 184 801 l 111 675 l 121 1048 q 148 987 135 1000 q 218 961 197 961 l 745 949 l 418 54 q 569 110 534 84 q 687 241 663 203 q 755 401 746 362 l 766 -87 m 616 1193 l 522 1025 l 248 1193 l 432 1132 l 616 1193 z "},"ä":{"ha":1036,"x_min":69,"x_max":966,"o":"m 966 0 l 549 0 q 582 17 566 9 q 630 67 623 50 l 637 296 q 599 288 616 296 q 540 230 552 250 l 514 187 q 468 266 483 252 q 403 296 419 296 l 399 107 q 426 37 414 50 q 488 9 471 9 l 69 0 q 103 17 87 9 q 151 67 143 50 l 158 221 q 131 289 143 277 q 69 317 86 317 q 102 335 86 328 q 151 386 143 368 l 158 725 q 223 893 192 862 q 395 961 341 961 q 739 943 695 961 q 861 819 844 862 l 878 424 q 906 355 893 368 q 966 328 950 328 q 934 309 950 317 q 885 259 893 277 l 878 107 q 905 37 892 50 q 966 9 949 9 m 637 349 l 637 825 q 554 907 593 907 q 421 885 444 907 l 399 349 q 437 357 420 349 q 495 414 484 394 l 522 457 q 567 379 553 394 q 633 349 616 349 m 503 1108 q 422 1060 454 1095 l 371 978 q 248 1108 292 1096 q 325 1163 292 1129 l 379 1247 q 503 1117 454 1131 m 787 1108 q 707 1060 739 1095 l 656 978 q 532 1108 576 1096 q 610 1163 576 1129 l 664 1247 q 787 1117 739 1131 z "},"å":{"ha":1036,"x_min":69,"x_max":966,"o":"m 966 0 l 549 0 q 582 17 566 9 q 630 67 623 50 l 637 296 q 599 288 616 296 q 540 230 552 250 l 514 187 q 468 266 483 252 q 403 296 419 296 l 399 107 q 426 37 414 50 q 488 9 471 9 l 69 0 q 103 17 87 9 q 151 67 143 50 l 158 221 q 131 289 143 277 q 69 317 86 317 q 102 335 86 328 q 151 386 143 368 l 158 725 q 223 893 192 862 q 395 961 341 961 q 739 943 695 961 q 861 819 844 862 l 878 424 q 906 355 893 368 q 966 328 950 328 q 934 309 950 317 q 885 259 893 277 l 878 107 q 905 37 892 50 q 966 9 949 9 m 637 349 l 637 825 q 554 907 593 907 q 421 885 444 907 l 399 349 q 437 357 420 349 q 495 414 484 394 l 522 457 q 567 379 553 394 q 633 349 616 349 m 530 1109 q 526 1126 530 1120 q 510 1126 514 1132 q 510 1093 505 1097 q 526 1093 522 1088 m 642 1109 q 632 1073 642 1090 q 567 1023 589 1030 q 470 1023 492 1015 q 404 1073 414 1055 q 404 1146 395 1129 q 469 1197 446 1190 q 567 1197 544 1204 q 632 1146 623 1164 z "},"é":{"ha":913,"x_min":83,"x_max":829,"o":"m 819 -87 q 812 -55 819 -71 q 762 -7 779 -14 l 83 0 q 116 17 100 9 q 165 67 157 50 l 172 220 q 144 289 157 276 q 83 317 100 317 q 115 335 99 328 q 164 385 156 367 l 172 854 q 144 926 157 913 q 83 951 100 951 l 710 961 q 780 987 767 975 q 807 1048 807 1031 l 817 675 q 769 759 795 718 q 632 886 673 866 l 412 907 l 416 349 q 484 380 469 366 q 528 457 522 435 q 582 373 550 406 l 660 318 q 536 187 549 234 q 510 230 522 210 q 451 288 468 279 l 412 296 l 481 54 q 631 110 597 84 q 750 241 726 203 q 818 401 808 362 l 829 -87 m 591 1181 l 453 1025 l 421 1193 l 591 1181 z "},"ñ":{"ha":1038,"x_min":69,"x_max":968,"o":"m 968 0 l 550 0 q 583 16 567 9 q 631 67 624 49 l 639 371 q 563 702 597 644 q 399 857 443 836 q 406 67 399 85 q 454 17 438 24 l 488 0 l 69 9 q 131 37 119 24 q 158 107 158 85 q 150 896 158 878 q 101 945 117 939 l 69 961 q 350 936 270 961 q 582 776 545 829 l 639 961 l 968 951 q 907 925 920 938 q 879 854 879 877 q 887 67 879 85 q 936 16 920 23 l 968 0 m 746 1202 l 652 1032 l 390 1025 l 385 1194 l 646 1202 z "},"ö":{"ha":1036,"x_min":69,"x_max":966,"o":"m 966 317 q 934 309 950 317 q 883 252 891 273 q 858 129 875 165 q 737 18 780 35 l 395 0 q 226 64 256 35 q 161 203 161 165 q 132 288 145 274 q 69 317 85 317 q 102 335 86 328 q 151 386 143 368 l 158 725 q 223 894 192 863 q 395 961 342 961 q 738 943 694 961 q 861 819 844 863 l 878 425 q 906 356 893 369 q 966 328 950 328 m 637 136 l 637 825 q 554 907 592 907 q 420 885 442 907 l 399 136 q 482 54 441 54 q 616 77 595 54 m 504 1108 q 424 1060 456 1095 l 372 978 q 249 1108 294 1096 q 327 1163 294 1129 l 380 1247 q 504 1117 456 1131 m 789 1108 q 709 1060 741 1095 l 657 978 q 533 1108 578 1096 q 611 1163 578 1129 l 665 1247 q 789 1117 741 1131 z "},"ü":{"ha":1036,"x_min":69,"x_max":966,"o":"m 966 317 q 935 310 951 317 q 883 253 892 274 q 858 129 875 165 q 737 18 780 35 l 395 0 q 226 64 256 35 q 161 203 161 165 q 132 288 145 274 q 69 317 85 317 q 102 335 86 328 q 151 386 143 368 l 158 854 q 130 926 142 913 q 69 951 85 951 l 488 961 q 455 945 471 951 q 406 895 414 913 l 399 136 q 482 54 441 54 q 616 77 595 54 l 637 854 q 609 925 622 913 q 549 951 565 951 l 966 961 q 935 945 950 951 q 885 896 893 913 l 878 424 q 906 355 893 368 q 966 328 950 328 m 503 1108 q 422 1060 454 1095 l 371 978 q 248 1108 292 1096 q 325 1163 292 1129 l 379 1247 q 503 1117 454 1131 m 787 1108 q 707 1060 739 1095 l 656 978 q 532 1108 576 1096 q 610 1163 576 1129 l 664 1247 q 787 1117 739 1131 z "},"æ":{"ha":1378,"x_min":69,"x_max":1295,"o":"m 637 349 l 637 825 q 554 907 593 907 q 421 885 444 907 l 399 349 q 437 357 420 349 q 495 414 484 394 l 522 457 q 567 379 553 394 q 633 349 616 349 m 1284 -87 q 1277 -55 1284 -71 q 1227 -7 1244 -14 l 549 0 q 582 17 566 9 q 630 67 623 50 l 637 296 q 599 288 616 296 q 540 230 552 250 l 514 187 q 468 266 483 252 q 403 296 419 296 l 399 107 q 426 37 414 50 q 488 9 471 9 l 69 0 q 103 17 87 9 q 151 67 143 50 l 158 221 q 131 289 143 277 q 69 317 86 317 q 102 335 86 328 q 151 386 143 368 l 158 725 q 223 893 192 862 q 395 961 341 961 q 1215 968 1197 961 q 1265 1016 1258 1000 l 1282 1048 l 1271 675 q 1173 833 1208 801 q 1014 907 1056 907 l 878 349 q 917 357 899 349 q 975 415 964 395 l 1002 457 q 1125 326 1079 339 q 1045 269 1076 304 l 993 187 q 948 265 964 250 q 882 296 899 296 l 878 54 q 1024 69 986 54 q 1161 169 1131 135 q 1256 321 1239 280 l 1295 401 l 1284 -87 z "},"à":{"ha":1036,"x_min":69,"x_max":966,"o":"m 966 0 l 549 0 q 582 17 566 9 q 630 67 623 50 l 637 296 q 599 288 616 296 q 540 230 552 250 l 514 187 q 468 266 483 252 q 403 296 419 296 l 399 107 q 426 37 414 50 q 488 9 471 9 l 69 0 q 103 17 87 9 q 151 67 143 50 l 158 221 q 131 289 143 277 q 69 317 86 317 q 102 335 86 328 q 151 386 143 368 l 158 725 q 223 893 192 862 q 395 961 341 961 q 739 943 695 961 q 861 819 844 862 l 878 424 q 906 355 893 368 q 966 328 950 328 q 934 309 950 317 q 885 259 893 277 l 878 107 q 905 37 892 50 q 966 9 949 9 m 637 349 l 637 825 q 554 907 593 907 q 421 885 444 907 l 399 349 q 437 357 420 349 q 495 414 484 394 l 522 457 q 567 379 553 394 q 633 349 616 349 m 623 1025 l 534 1025 l 396 1193 l 623 1025 z "},"ã":{"ha":1036,"x_min":69,"x_max":966,"o":"m 966 0 l 549 0 q 582 17 566 9 q 630 67 623 50 l 637 296 q 599 288 616 296 q 540 230 552 250 l 514 187 q 468 266 483 252 q 403 296 419 296 l 399 107 q 426 37 414 50 q 488 9 471 9 l 69 0 q 103 17 87 9 q 151 67 143 50 l 158 221 q 131 289 143 277 q 69 317 86 317 q 102 335 86 328 q 151 386 143 368 l 158 725 q 223 893 192 862 q 395 961 341 961 q 739 943 695 961 q 861 819 844 862 l 878 424 q 906 355 893 368 q 966 328 950 328 q 934 309 950 317 q 885 259 893 277 l 878 107 q 905 37 892 50 q 966 9 949 9 m 637 349 l 637 825 q 554 907 593 907 q 421 885 444 907 l 399 349 q 437 357 420 349 q 495 414 484 394 l 522 457 q 567 379 553 394 q 633 349 616 349 m 746 1202 l 652 1032 l 390 1025 l 385 1194 l 646 1202 z "},"õ":{"ha":1036,"x_min":69,"x_max":966,"o":"m 966 317 q 934 309 950 317 q 883 252 891 273 q 858 129 875 165 q 737 18 780 35 l 395 0 q 226 64 256 35 q 161 203 161 165 q 132 288 145 274 q 69 317 85 317 q 102 335 86 328 q 151 386 143 368 l 158 725 q 223 894 192 863 q 395 961 342 961 q 738 943 694 961 q 861 819 844 863 l 878 425 q 906 356 893 369 q 966 328 950 328 m 637 136 l 637 825 q 554 907 592 907 q 420 885 442 907 l 399 136 q 482 54 441 54 q 616 77 595 54 m 747 1202 l 653 1032 l 392 1025 l 386 1194 l 647 1202 z "},"œ":{"ha":1378,"x_min":69,"x_max":1295,"o":"m 637 136 l 637 825 q 554 907 592 907 q 420 885 442 907 l 399 136 q 482 54 441 54 q 616 77 595 54 m 1284 -87 q 1277 -55 1284 -71 q 1227 -7 1244 -14 l 395 0 q 226 64 256 35 q 161 203 161 165 q 132 288 145 274 q 69 317 85 317 q 102 335 86 328 q 151 386 143 368 l 158 725 q 223 894 192 863 q 395 961 342 961 q 1215 968 1197 961 q 1265 1016 1258 1000 l 1282 1048 l 1271 675 q 1173 833 1208 801 q 1014 907 1056 907 l 878 349 q 917 357 899 349 q 975 415 964 395 l 1002 457 q 1125 326 1079 339 q 1045 269 1076 304 l 993 187 q 948 265 964 250 q 882 296 899 296 l 878 54 q 1024 69 986 54 q 1161 169 1131 135 q 1256 321 1239 280 l 1295 401 l 1284 -87 z "},"ÿ":{"ha":983,"x_min":49,"x_max":935,"o":"m 935 633 q 846 615 891 631 q 678 526 716 554 l 611 107 q 638 37 626 50 q 700 9 683 9 l 283 0 q 316 17 300 9 q 365 67 357 50 l 372 471 q 206 587 248 566 q 49 633 83 632 q 81 651 65 644 q 130 702 122 684 l 138 854 q 109 926 122 913 q 49 951 65 951 l 464 961 q 432 945 448 951 q 383 896 391 913 l 375 545 q 436 490 420 505 q 492 422 480 439 q 608 545 579 521 q 601 896 608 878 q 551 945 567 939 l 519 961 l 935 951 q 874 926 887 939 q 846 854 846 878 q 853 702 846 720 q 903 651 887 659 l 935 633 m 478 1108 q 397 1060 429 1095 l 346 978 q 222 1108 267 1096 q 300 1163 267 1129 l 354 1247 q 478 1117 429 1131 m 762 1108 q 682 1060 714 1095 l 631 978 q 507 1108 552 1096 q 585 1163 552 1129 l 639 1247 q 762 1117 714 1131 z "},"â":{"ha":1036,"x_min":69,"x_max":966,"o":"m 966 0 l 549 0 q 582 17 566 9 q 630 67 623 50 l 637 296 q 599 288 616 296 q 540 230 552 250 l 514 187 q 468 266 483 252 q 403 296 419 296 l 399 107 q 426 37 414 50 q 488 9 471 9 l 69 0 q 103 17 87 9 q 151 67 143 50 l 158 221 q 131 289 143 277 q 69 317 86 317 q 102 335 86 328 q 151 386 143 368 l 158 725 q 223 893 192 862 q 395 961 341 961 q 739 943 695 961 q 861 819 844 862 l 878 424 q 906 355 893 368 q 966 328 950 328 q 934 309 950 317 q 885 259 893 277 l 878 107 q 905 37 892 50 q 966 9 949 9 m 637 349 l 637 825 q 554 907 593 907 q 421 885 444 907 l 399 349 q 437 357 420 349 q 495 414 484 394 l 522 457 q 567 379 553 394 q 633 349 616 349 m 703 1025 l 610 1025 l 427 1025 l 428 1193 l 703 1025 z "},"ê":{"ha":913,"x_min":83,"x_max":829,"o":"m 819 -87 q 812 -55 819 -71 q 762 -7 779 -14 l 83 0 q 116 17 100 9 q 165 67 157 50 l 172 220 q 144 289 157 276 q 83 317 100 317 q 115 335 99 328 q 164 385 156 367 l 172 854 q 144 926 157 913 q 83 951 100 951 l 710 961 q 780 987 767 975 q 807 1048 807 1031 l 817 675 q 769 759 795 718 q 632 886 673 866 l 412 907 l 416 349 q 484 380 469 366 q 528 457 522 435 q 582 373 550 406 l 660 318 q 536 187 549 234 q 510 230 522 210 q 451 288 468 279 l 412 296 l 481 54 q 631 110 597 84 q 750 241 726 203 q 818 401 808 362 l 829 -87 m 625 1025 l 532 1025 l 349 1025 l 350 1193 l 625 1025 z "},"á":{"ha":1036,"x_min":69,"x_max":966,"o":"m 966 0 l 549 0 q 582 17 566 9 q 630 67 623 50 l 637 296 q 599 288 616 296 q 540 230 552 250 l 514 187 q 468 266 483 252 q 403 296 419 296 l 399 107 q 426 37 414 50 q 488 9 471 9 l 69 0 q 103 17 87 9 q 151 67 143 50 l 158 221 q 131 289 143 277 q 69 317 86 317 q 102 335 86 328 q 151 386 143 368 l 158 725 q 223 893 192 862 q 395 961 341 961 q 739 943 695 961 q 861 819 844 862 l 878 424 q 906 355 893 368 q 966 328 950 328 q 934 309 950 317 q 885 259 893 277 l 878 107 q 905 37 892 50 q 966 9 949 9 m 637 349 l 637 825 q 554 907 593 907 q 421 885 444 907 l 399 349 q 437 357 420 349 q 495 414 484 394 l 522 457 q 567 379 553 394 q 633 349 616 349 m 639 1181 l 500 1025 l 468 1193 l 639 1181 z "},"ë":{"ha":913,"x_min":83,"x_max":829,"o":"m 819 -87 q 812 -55 819 -71 q 762 -7 779 -14 l 83 0 q 116 17 100 9 q 165 67 157 50 l 172 220 q 144 289 157 276 q 83 317 100 317 q 115 335 99 328 q 164 385 156 367 l 172 854 q 144 926 157 913 q 83 951 100 951 l 710 961 q 780 987 767 975 q 807 1048 807 1031 l 817 675 q 769 759 795 718 q 632 886 673 866 l 412 907 l 416 349 q 484 380 469 366 q 528 457 522 435 q 582 373 550 406 l 660 318 q 536 187 549 234 q 510 230 522 210 q 451 288 468 279 l 412 296 l 481 54 q 631 110 597 84 q 750 241 726 203 q 818 401 808 362 l 829 -87 m 425 1108 q 345 1060 376 1095 l 293 978 q 170 1108 214 1096 q 248 1163 214 1129 l 301 1247 q 425 1117 376 1131 m 710 1108 q 629 1060 661 1095 l 578 978 q 454 1108 499 1096 q 532 1163 499 1129 l 586 1247 q 710 1117 661 1131 z "},"è":{"ha":913,"x_min":83,"x_max":829,"o":"m 819 -87 q 812 -55 819 -71 q 762 -7 779 -14 l 83 0 q 116 17 100 9 q 165 67 157 50 l 172 220 q 144 289 157 276 q 83 317 100 317 q 115 335 99 328 q 164 385 156 367 l 172 854 q 144 926 157 913 q 83 951 100 951 l 710 961 q 780 987 767 975 q 807 1048 807 1031 l 817 675 q 769 759 795 718 q 632 886 673 866 l 412 907 l 416 349 q 484 380 469 366 q 528 457 522 435 q 582 373 550 406 l 660 318 q 536 187 549 234 q 510 230 522 210 q 451 288 468 279 l 412 296 l 481 54 q 631 110 597 84 q 750 241 726 203 q 818 401 808 362 l 829 -87 m 553 1025 l 465 1025 l 326 1193 l 553 1025 z "},"í":{"ha":557,"x_min":69,"x_max":488,"o":"m 488 0 l 69 0 q 103 17 87 9 q 151 67 143 50 l 158 854 q 130 926 142 913 q 69 951 85 951 l 488 961 q 455 945 471 951 q 406 895 414 913 l 399 107 q 426 36 414 49 q 488 9 471 9 m 400 1181 l 261 1025 l 229 1193 l 400 1181 z "},"î":{"ha":557,"x_min":69,"x_max":488,"o":"m 488 0 l 69 0 q 103 17 87 9 q 151 67 143 50 l 158 854 q 130 926 142 913 q 69 951 85 951 l 488 961 q 455 945 471 951 q 406 895 414 913 l 399 107 q 426 36 414 49 q 488 9 471 9 m 464 1025 l 371 1025 l 187 1025 l 189 1193 l 464 1025 z "},"ï":{"ha":557,"x_min":8,"x_max":549,"o":"m 488 0 l 69 0 q 103 17 87 9 q 151 67 143 50 l 158 854 q 130 926 142 913 q 69 951 85 951 l 488 961 q 455 945 471 951 q 406 895 414 913 l 399 107 q 426 36 414 49 q 488 9 471 9 m 264 1108 q 184 1060 216 1095 l 132 978 q 8 1108 53 1096 q 86 1163 53 1129 l 140 1247 q 264 1117 216 1131 m 549 1108 q 469 1060 500 1095 l 416 978 q 293 1108 338 1096 q 371 1163 338 1129 l 425 1247 q 549 1117 500 1131 z "},"ì":{"ha":557,"x_min":69,"x_max":488,"o":"m 488 0 l 69 0 q 103 17 87 9 q 151 67 143 50 l 158 854 q 130 926 142 913 q 69 951 85 951 l 488 961 q 455 945 471 951 q 406 895 414 913 l 399 107 q 426 36 414 49 q 488 9 471 9 m 383 1025 l 296 1025 l 157 1193 l 383 1025 z "},"ó":{"ha":1036,"x_min":69,"x_max":966,"o":"m 966 317 q 934 309 950 317 q 883 252 891 273 q 858 129 875 165 q 737 18 780 35 l 395 0 q 226 64 256 35 q 161 203 161 165 q 132 288 145 274 q 69 317 85 317 q 102 335 86 328 q 151 386 143 368 l 158 725 q 223 894 192 863 q 395 961 342 961 q 738 943 694 961 q 861 819 844 863 l 878 425 q 906 356 893 369 q 966 328 950 328 m 637 136 l 637 825 q 554 907 592 907 q 420 885 442 907 l 399 136 q 482 54 441 54 q 616 77 595 54 m 640 1181 l 501 1025 l 469 1193 l 640 1181 z "},"ô":{"ha":1036,"x_min":69,"x_max":966,"o":"m 966 317 q 934 309 950 317 q 883 252 891 273 q 858 129 875 165 q 737 18 780 35 l 395 0 q 226 64 256 35 q 161 203 161 165 q 132 288 145 274 q 69 317 85 317 q 102 335 86 328 q 151 386 143 368 l 158 725 q 223 894 192 863 q 395 961 342 961 q 738 943 694 961 q 861 819 844 863 l 878 425 q 906 356 893 369 q 966 328 950 328 m 637 136 l 637 825 q 554 907 592 907 q 420 885 442 907 l 399 136 q 482 54 441 54 q 616 77 595 54 m 704 1025 l 611 1025 l 428 1025 l 429 1193 l 704 1025 z "},"ò":{"ha":1036,"x_min":69,"x_max":966,"o":"m 966 317 q 934 309 950 317 q 883 252 891 273 q 858 129 875 165 q 737 18 780 35 l 395 0 q 226 64 256 35 q 161 203 161 165 q 132 288 145 274 q 69 317 85 317 q 102 335 86 328 q 151 386 143 368 l 158 725 q 223 894 192 863 q 395 961 342 961 q 738 943 694 961 q 861 819 844 863 l 878 425 q 906 356 893 369 q 966 328 950 328 m 637 136 l 637 825 q 554 907 592 907 q 420 885 442 907 l 399 136 q 482 54 441 54 q 616 77 595 54 m 623 1025 l 534 1025 l 396 1193 l 623 1025 z "},"ú":{"ha":1036,"x_min":69,"x_max":966,"o":"m 966 317 q 935 310 951 317 q 883 253 892 274 q 858 129 875 165 q 737 18 780 35 l 395 0 q 226 64 256 35 q 161 203 161 165 q 132 288 145 274 q 69 317 85 317 q 102 335 86 328 q 151 386 143 368 l 158 854 q 130 926 142 913 q 69 951 85 951 l 488 961 q 455 945 471 951 q 406 895 414 913 l 399 136 q 482 54 441 54 q 616 77 595 54 l 637 854 q 609 925 622 913 q 549 951 565 951 l 966 961 q 935 945 950 951 q 885 896 893 913 l 878 424 q 906 355 893 368 q 966 328 950 328 m 639 1181 l 500 1025 l 468 1193 l 639 1181 z "},"û":{"ha":1036,"x_min":69,"x_max":966,"o":"m 966 317 q 935 310 951 317 q 883 253 892 274 q 858 129 875 165 q 737 18 780 35 l 395 0 q 226 64 256 35 q 161 203 161 165 q 132 288 145 274 q 69 317 85 317 q 102 335 86 328 q 151 386 143 368 l 158 854 q 130 926 142 913 q 69 951 85 951 l 488 961 q 455 945 471 951 q 406 895 414 913 l 399 136 q 482 54 441 54 q 616 77 595 54 l 637 854 q 609 925 622 913 q 549 951 565 951 l 966 961 q 935 945 950 951 q 885 896 893 913 l 878 424 q 906 355 893 368 q 966 328 950 328 m 703 1025 l 610 1025 l 427 1025 l 428 1193 l 703 1025 z "},"ù":{"ha":1036,"x_min":69,"x_max":966,"o":"m 966 317 q 935 310 951 317 q 883 253 892 274 q 858 129 875 165 q 737 18 780 35 l 395 0 q 226 64 256 35 q 161 203 161 165 q 132 288 145 274 q 69 317 85 317 q 102 335 86 328 q 151 386 143 368 l 158 854 q 130 926 142 913 q 69 951 85 951 l 488 961 q 455 945 471 951 q 406 895 414 913 l 399 136 q 482 54 441 54 q 616 77 595 54 l 637 854 q 609 925 622 913 q 549 951 565 951 l 966 961 q 935 945 950 951 q 885 896 893 913 l 878 424 q 906 355 893 368 q 966 328 950 328 m 623 1025 l 534 1025 l 396 1193 l 623 1025 z "},"ø":{"ha":1036,"x_min":69,"x_max":966,"o":"m 966 317 q 934 309 950 317 q 883 252 891 273 q 858 129 875 165 q 737 18 780 35 l 395 0 q 374 1 380 0 l 283 -79 q 253 42 281 22 q 172 143 183 113 q 153 253 161 231 q 102 310 119 302 l 69 328 q 131 355 118 342 q 158 424 158 404 q 175 819 158 776 q 298 943 254 926 l 642 961 q 672 960 662 961 l 762 1042 q 790 914 762 935 q 867 800 857 836 l 878 425 q 906 356 893 369 q 966 328 950 328 m 633 856 q 605 893 626 880 l 482 907 q 399 825 399 863 l 633 856 m 637 136 l 637 704 q 436 65 418 75 l 554 54 q 637 136 637 100 z "},"ç":{"ha":878,"x_min":56,"x_max":802,"o":"m 791 -87 q 784 -55 791 -71 q 734 -7 751 -14 l 492 0 q 511 -57 494 -50 q 561 -102 553 -87 q 547 -194 568 -170 q 423 -252 461 -246 l 378 -186 q 408 -150 406 -159 q 395 -114 403 -121 l 380 0 q 212 64 242 35 q 147 203 147 165 q 118 288 131 274 q 56 317 72 317 q 87 335 72 328 q 137 385 129 368 l 144 725 q 210 894 178 863 q 382 961 328 961 q 722 968 704 961 q 772 1016 765 1000 l 789 1048 l 778 675 q 680 833 715 801 q 521 907 563 907 q 407 886 430 907 l 385 136 q 468 54 428 54 q 638 139 593 96 q 790 401 766 313 l 802 -87 z "},"Ð":{"ha":1003,"x_min":69,"x_max":878,"o":"m 878 236 q 860 140 878 183 q 736 17 780 35 l 69 0 q 103 17 87 9 q 151 68 144 50 l 158 453 l 69 510 l 158 854 q 130 926 142 914 q 69 951 85 951 l 642 961 q 813 894 782 926 q 878 725 878 776 m 637 136 l 637 825 q 553 907 593 907 l 399 510 l 515 453 l 399 54 q 616 76 594 54 z "},"Ł":{"ha":843,"x_min":69,"x_max":815,"o":"m 806 -87 q 799 -55 806 -71 q 747 -7 765 -14 l 69 0 q 103 17 87 9 q 151 67 143 50 l 158 453 l 69 468 l 158 854 q 130 926 142 913 q 69 951 85 951 l 488 961 q 455 945 471 951 q 406 895 414 913 l 399 657 l 557 682 l 399 54 q 545 69 507 54 q 682 169 652 135 q 777 321 760 280 l 815 401 l 806 -87 z "},"Þ":{"ha":878,"x_min":69,"x_max":850,"o":"m 850 510 q 726 490 791 509 q 487 341 539 396 l 399 107 q 426 37 414 50 q 488 9 471 9 l 69 0 q 102 16 86 9 q 151 67 143 49 l 158 854 q 130 926 142 914 q 69 951 85 951 l 399 961 l 614 838 q 785 771 754 802 q 850 602 850 652 m 618 635 l 618 701 q 534 783 570 783 l 399 325 q 479 414 455 391 q 573 513 553 486 q 618 635 618 601 z "},"ð":{"ha":1003,"x_min":69,"x_max":878,"o":"m 878 236 q 860 140 878 183 q 736 17 780 35 l 69 0 q 103 17 87 9 q 151 68 144 50 l 158 453 l 69 510 l 158 854 q 130 926 142 914 q 69 951 85 951 l 642 961 q 813 894 782 926 q 878 725 878 776 m 637 136 l 637 825 q 553 907 593 907 l 399 510 l 515 453 l 399 54 q 616 76 594 54 z "},"ł":{"ha":843,"x_min":69,"x_max":815,"o":"m 806 -87 q 799 -55 806 -71 q 747 -7 765 -14 l 69 0 q 103 17 87 9 q 151 67 143 50 l 158 453 l 69 468 l 158 854 q 130 926 142 913 q 69 951 85 951 l 488 961 q 455 945 471 951 q 406 895 414 913 l 399 657 l 557 682 l 399 54 q 545 69 507 54 q 682 169 652 135 q 777 321 760 280 l 815 401 l 806 -87 z "},"þ":{"ha":878,"x_min":69,"x_max":850,"o":"m 850 510 q 726 490 791 509 q 487 341 539 396 l 399 107 q 426 37 414 50 q 488 9 471 9 l 69 0 q 102 16 86 9 q 151 67 143 49 l 158 854 q 130 926 142 914 q 69 951 85 951 l 399 961 l 614 838 q 785 771 754 802 q 850 602 850 652 m 618 635 l 618 701 q 534 783 570 783 l 399 325 q 479 414 455 391 q 573 513 553 486 q 618 635 618 601 z "},"@":{"ha":966,"x_min":35,"x_max":932,"o":"m 932 476 q 854 430 887 464 l 800 346 q 764 415 776 402 q 705 443 722 443 q 651 421 662 431 q 624 376 627 388 l 587 340 q 543 312 552 323 q 521 258 521 275 q 549 200 536 212 q 618 164 597 170 q 534 110 568 143 l 479 32 q 430 113 447 97 q 349 155 372 150 q 419 201 393 176 q 440 288 446 275 q 403 329 415 322 l 379 376 q 333 400 340 388 q 291 437 304 431 q 230 435 245 443 q 181 385 191 402 l 158 346 q 35 476 79 464 q 115 534 83 498 l 167 615 q 261 518 230 518 q 315 539 304 530 q 343 585 340 572 l 379 621 q 425 649 415 639 q 446 703 446 686 q 349 798 393 786 q 392 822 372 811 q 460 884 447 864 l 488 929 q 618 806 568 818 q 579 783 597 792 q 528 734 536 749 q 527 673 521 686 q 564 631 552 638 l 587 585 q 634 561 627 572 q 676 524 663 530 q 763 545 737 518 l 808 615 q 932 485 883 498 z "},"Ý":{"ha":983,"x_min":49,"x_max":935,"o":"m 935 633 q 846 615 891 631 q 678 526 716 554 l 611 107 q 638 37 626 50 q 700 9 683 9 l 283 0 q 316 17 300 9 q 365 67 357 50 l 372 471 q 206 587 248 566 q 49 633 83 632 q 81 651 65 644 q 130 702 122 684 l 138 854 q 109 926 122 913 q 49 951 65 951 l 464 961 q 432 945 448 951 q 383 896 391 913 l 375 545 q 436 490 420 505 q 492 422 480 439 q 608 545 579 521 q 601 896 608 878 q 551 945 567 939 l 519 961 l 935 951 q 874 926 887 939 q 846 854 846 878 q 853 702 846 720 q 903 651 887 659 l 935 633 m 614 1181 l 475 1025 l 443 1193 l 614 1181 z "},"Ž":{"ha":850,"x_min":97,"x_max":766,"o":"m 757 -87 q 750 -55 757 -71 q 699 -7 717 -14 l 97 0 l 433 907 q 296 886 338 907 q 159 759 184 801 l 111 675 l 121 1048 q 148 987 135 1000 q 218 961 197 961 l 745 949 l 418 54 q 569 110 534 84 q 687 241 663 203 q 755 401 746 362 l 766 -87 m 616 1193 l 522 1025 l 248 1193 l 432 1132 l 616 1193 z "}}}
